<svg width="48" height="48" viewBox="0 0 48 48" fill="none" xmlns="http://www.w3.org/2000/svg">
<path d="M31.0623 20.9375C31.6498 21.525 31.6498 22.475 31.0623 23.0562L23.0623 31.0625C22.4748 31.65 21.5248 31.65 20.9436 31.0625L16.9436 27.0625C16.3561 26.475 16.3561 25.525 16.9436 24.9437C17.5311 24.3625 18.4811 24.3562 19.0623 24.9437L21.9998 27.8812L28.9373 20.9375C29.5248 20.35 30.4748 20.35 31.0561 20.9375H31.0623Z" fill="#517890"/>
<path d="M13 38C8.03125 38 4 33.9688 4 29C4 25.075 6.5125 21.7375 10.0125 20.5063C10.0062 20.3375 10 20.1687 10 20C10 14.475 14.475 10 20 10C23.7062 10 26.9375 12.0125 28.6688 15.0125C29.6188 14.375 30.7687 14 32 14C35.3125 14 38 16.6875 38 20C38 20.7625 37.8562 21.4875 37.6 22.1625C41.25 22.9 44 26.1313 44 30C44 34.4188 40.4188 38 36 38H13ZM31.0625 23.0625C31.65 22.475 31.65 21.525 31.0625 20.9438C30.475 20.3625 29.525 20.3563 28.9438 20.9438L22.0063 27.8813L19.0688 24.9438C18.4813 24.3563 17.5312 24.3563 16.95 24.9438C16.3687 25.5312 16.3625 26.4813 16.95 27.0625L20.95 31.0625C21.5375 31.65 22.4875 31.65 23.0688 31.0625L31.0625 23.0625Z" fill="#97B9CE"/>
</svg>
