<svg width="48" height="48" viewBox="0 0 48 48" fill="none" xmlns="http://www.w3.org/2000/svg">
<g clip-path="url(#clip0_6124_2123)">
<path d="M30 18H22C20.8937 18 20 17.1062 20 16V8L30 18ZM32.4438 22.1062C32.8 21.9625 33.2 21.9625 33.5562 22.1062L41.0563 25.1063C41.625 25.3375 42 25.8875 42 26.5C42 30.4562 40.3813 37.05 33.575 39.8875C33.2063 40.0438 32.7875 40.0438 32.4188 39.8875C25.6188 37.05 24 30.4562 24 26.5C24 25.8875 24.375 25.3375 24.9438 25.1063L32.4438 22.1062ZM38.9625 27.5L33 25.1125V36.8563C37.2625 34.7938 38.7188 30.6688 38.9625 27.5Z" fill="#517890"/>
<path d="M6 12C6 9.79375 7.79375 8 10 8H20V16C20 17.1062 20.8938 18 22 18H30V20.9375L24.2 23.2563C22.8688 23.7875 22 25.075 22 26.5063C22 30.0438 23.1813 35.7563 27.8875 39.525C27.325 39.825 26.6812 40 26 40H10C7.79375 40 6 38.2062 6 36V12Z" fill="#97B9CE"/>
</g>
<defs>
<clipPath id="clip0_6124_2123">
<rect width="36" height="32" fill="white" transform="translate(6 8)"/>
</clipPath>
</defs>
</svg>
