<svg width="48" height="48" viewBox="0 0 48 48" fill="none" xmlns="http://www.w3.org/2000/svg">
<path d="M40 10C38.8937 10 38 10.8937 38 12V36C38 37.1063 38.8937 38 40 38C41.1063 38 42 37.1063 42 36V12C42 10.8937 41.1063 10 40 10ZM16 32C16 35.3125 18.6875 38 22 38C24.925 38 27.3625 35.9062 27.8937 33.1375L24.9813 32.3125C24.825 33.825 23.55 35 22 35C20.3438 35 19 33.6562 19 32C19 31.5375 19.1062 31.0938 19.2937 30.7L16.3875 29.875C16.1375 30.5375 16 31.25 16 32Z" fill="#517890"/>
<path d="M10 19.9312L38 12V36L10 28.0688C9.9625 29.1375 9.08125 30 8 30C6.89375 30 6 29.1063 6 28V20C6 18.8938 6.89375 18 8 18C9.08125 18 9.9625 18.8625 10 19.9312Z" fill="#97B9CE"/>
</svg>
