<svg width="48" height="48" viewBox="0 0 48 48" fill="none" xmlns="http://www.w3.org/2000/svg">
<g clip-path="url(#clip0_6124_2117)">
<path d="M37.6875 15.2438L36.825 18.6938C37.8125 19.6188 38.6188 20.7438 39.1688 22H40C41.1063 22 42 22.8938 42 24V30C42 31.1063 41.1063 32 40 32H38C37.4312 32.7563 36.7563 33.4312 36 34V38C36 39.1063 35.1063 40 34 40H32C30.8937 40 30 39.1063 30 38V36H22V38C22 39.1063 21.1062 40 20 40H18C16.8938 40 16 39.1063 16 38V34C13.8187 32.3625 12.3313 29.8562 12.05 27H10.25C7.9 27 6 25.1 6 22.75C6 20.4 7.9 18.5 10.25 18.5H10.5C11.3313 18.5 12 19.1687 12 20C12 20.8313 11.3313 21.5 10.5 21.5H10.25C9.5625 21.5 9 22.0625 9 22.75C9 23.4375 9.5625 24 10.25 24H12.2C13.125 19.4375 17.1625 16 22 16H30C30.4875 16 30.9688 16.0375 31.4375 16.1C32.5375 14.8188 34.175 14 36 14H36.7188C37.3687 14 37.8438 14.6125 37.6875 15.2438ZM32.5 26C32.8978 26 33.2794 25.842 33.5607 25.5607C33.842 25.2794 34 24.8978 34 24.5C34 24.1022 33.842 23.7206 33.5607 23.4393C33.2794 23.158 32.8978 23 32.5 23C32.1022 23 31.7206 23.158 31.4393 23.4393C31.158 23.7206 31 24.1022 31 24.5C31 24.8978 31.158 25.2794 31.4393 25.5607C31.7206 25.842 32.1022 26 32.5 26Z" fill="#97B9CE"/>
<path d="M31 14C31 14.7063 30.875 15.3875 30.65 16.0188C30.4375 16.0063 30.2188 16 30 16H22C21.125 16 20.275 16.1125 19.4688 16.325C19.1687 15.6125 19 14.825 19 14C19 10.6875 21.6875 8 25 8C28.3125 8 31 10.6875 31 14Z" fill="#517890"/>
</g>
<defs>
<clipPath id="clip0_6124_2117">
<rect width="36" height="32" fill="white" transform="translate(6 8)"/>
</clipPath>
</defs>
</svg>
