<svg width="277" height="231" viewBox="0 0 277 231" fill="none" xmlns="http://www.w3.org/2000/svg">
<path d="M175.52 88.9225H0V101.622C0 101.622 123.74 147.892 39.93 219.452V231.002H194.03V219.462C176.85 199.922 134.49 161.862 163.03 143.652C193.94 125.232 214.48 124.512 244.67 113.862C274.86 103.212 285.38 96.4025 268.67 96.4025H175.52V88.9225Z" fill="#035C94"/>
<path d="M85.0492 90.7725C85.0492 90.7725 62.7392 67.3825 92.1892 36.8625C121.639 6.34248 103.189 -1.72751 110.859 5.70249C112.189 6.98249 128.339 22.5725 127.919 36.0625C127.369 53.2925 109.979 69.1225 109.979 69.1225C109.979 69.1225 135.329 55.1825 136.309 46.9425C137.149 39.8825 152.849 71.9425 134.029 90.7625" stroke="#035C94" stroke-width="5"/>
<path d="M136.311 46.9425C136.311 46.9425 134.191 61.9425 82.3105 84.0825" stroke="#035C94" stroke-width="5"/>
<path d="M143.2 65.1225C143.2 65.1225 141.86 77.3425 95.6797 94.8325" stroke="#035C94" stroke-width="5"/>
<path d="M126.98 29.5325C126.98 29.5325 124.98 42.7025 76.9805 62.1925" stroke="#035C94" stroke-width="5"/>
<mask id="mask0_0_14155" style="mask-type:luminance" maskUnits="userSpaceOnUse" x="55" y="88" width="113" height="143">
<path fill-rule="evenodd" clip-rule="evenodd" d="M55 88.9225H168V231H55V88.9225Z" fill="white"/>
</mask>
<g mask="url(#mask0_0_14155)">
<path d="M109.96 43.4825C86.5502 64.7425 82.7902 70.2425 82.7402 81.7625C82.7402 89.2525 85.7402 99.4325 109.61 119.672C133.48 139.912 136.49 150.252 136.46 157.582C136.41 169.072 132.75 174.642 109.26 195.862" stroke="white" stroke-width="5"/>
<path d="M109.261 195.872C68.8108 161.422 78.8408 145.932 109.611 119.672C133.741 99.1225 136.741 88.8825 136.821 81.4025C136.871 69.8825 133.181 64.4025 109.961 43.4925" stroke="white" stroke-width="5"/>
<path d="M136.46 157.592L82.5996 157.952" stroke="white" stroke-width="5"/>
<path d="M88.4199 141.062L130.22 140.782" stroke="white" stroke-width="5"/>
<path d="M89.0098 174.772L130.62 174.483" stroke="white" stroke-width="5"/>
<path d="M88.9609 98.5725L130.461 98.2925" stroke="white" stroke-width="5"/>
<path d="M109.24 195.872C85.8295 217.122 82.0695 222.642 82.0195 234.122C82.0195 241.612 85.0195 251.793 108.89 272.033C132.76 292.273 135.74 302.652 135.74 309.982C135.69 321.472 132.03 327.042 108.54 348.262" stroke="white" stroke-width="5"/>
<path d="M108.54 348.262C68.0901 313.812 78.1201 298.323 108.89 272.062C132.99 251.493 136.07 241.262 136.1 233.782C136.15 222.262 132.46 216.782 109.24 195.872" stroke="white" stroke-width="5"/>
<path d="M88.6309 217.262L131.091 216.972" stroke="white" stroke-width="5"/>
</g>
</svg>
