<svg width="124" height="40" viewBox="0 0 124 40" fill="none" xmlns="http://www.w3.org/2000/svg">
<path d="M55.3453 28.1089C53.3613 29.9607 50.6565 31 47.7266 31C41.7301 31 36.7266 26.6177 36.7266 19.9322C36.7266 13.2468 41.7301 9 47.7266 9C50.6565 9 53.3164 10.0387 55.3 11.8458L53.1815 13.9692C51.7384 12.7047 49.8002 11.9813 47.7266 11.9813C43.3536 11.9813 39.7018 15.0533 39.7018 19.9322C39.7018 24.8112 43.3536 28.0182 47.7266 28.0182C49.8002 28.0182 51.7389 27.2958 53.1815 25.9855L55.3453 28.1089Z" fill="#231F20"/>
<path d="M61.5194 24.4943C61.9248 26.0757 62.9171 28.1531 66.4781 28.1531C69.1829 28.1531 70.9413 26.7986 70.9413 24.8107C70.9413 23.4102 70.1299 22.0999 67.9212 21.5578L64.9908 20.8808C62.3761 20.2481 59.1298 18.9378 59.6714 14.0145C60.1221 10.9879 63.098 9 66.524 9C69.7698 9 72.6101 10.5813 73.151 14.4658H70.2206C69.8605 12.8397 68.3272 11.8911 66.524 11.8911C64.4952 11.8911 62.8269 12.9752 62.6018 14.4658C62.151 16.9056 64.2247 17.628 65.712 17.9897L68.5971 18.6667C72.5647 19.6153 73.9166 21.9196 73.9166 24.8107C73.9166 28.4695 70.5806 30.9995 66.2076 30.9995C62.6461 30.9995 59.0397 28.605 58.8594 24.4943H61.5194Z" fill="#231F20"/>
<path d="M78.1973 19.9322C78.1973 13.2468 82.8408 9 88.8366 9C94.8325 9 99.1607 13.2462 99.1607 19.9322C99.1607 20.3836 99.1607 20.9256 99.1154 21.3322H81.2632C81.8036 25.4429 84.915 28.0176 88.8366 28.0176C91.6769 28.0176 94.1112 26.6631 95.4188 24.3588C96.3199 24.5845 97.4925 24.8107 98.4389 25.0364C96.7264 28.7859 93.0747 31 88.8366 31C82.8413 31 78.1973 26.6177 78.1973 19.9322ZM96.0947 18.5318C95.509 14.5117 92.7135 11.9818 88.8366 11.9818C84.9144 11.9818 81.849 14.5117 81.2632 18.5318H96.0947Z" fill="#231F20"/>
<path d="M116.877 12.7495C115.886 12.2528 114.578 12.0272 113.812 12.0272C109.529 12.0272 107.771 17.0865 107.771 22.6884V30.5487H104.75V9.45189H107.771V14.2402C108.807 10.6267 110.746 9 113.812 9C115.254 9 116.832 9.45189 117.238 9.81307L116.877 12.7495Z" fill="#231F20"/>
<mask id="mask0_4196_24586" style="mask-type:luminance" maskUnits="userSpaceOnUse" x="0" y="0" width="42" height="40">
<path d="M41.5682 0H0V40H41.5682V0Z" fill="white"/>
</mask>
<g mask="url(#mask0_4196_24586)">
<path d="M12.3289 82.3238C7.50067 79.4087 1.29522 75.1072 3.6231 68.6623C5.85128 62.4938 12.9858 59.786 17.7985 56.1257C21.4813 53.3247 25.0364 49.0454 24.3879 44.109C23.6913 38.8096 19.5513 34.8008 15.4428 31.7984C10.8052 28.4093 2.70703 25.3244 3.07916 18.3732C3.40855 12.2169 10.5555 8.35869 15.0649 5.51778C19.3979 2.78929 23.8155 -1.13737 24.4337 -6.50707C24.9995 -11.421 21.2495 -15.9256 17.801 -18.8968C16.1031 -20.3598 14.2437 -21.5971 12.3285 -22.7528C10.0501 -24.1286 10.9155 -20.8356 12.2107 -20.0537C17.0395 -17.1377 23.2443 -12.8365 20.9164 -6.39101C18.6882 -0.222524 11.5537 2.48535 6.74097 6.14505C3.05825 8.94626 -0.496905 13.2251 0.15158 18.1617C0.848247 23.4611 4.98825 27.4699 9.09673 30.4729C13.7343 33.8623 21.8328 36.9457 21.4604 43.8975C21.1307 50.0538 13.984 53.9129 9.47461 56.7532C5.14158 59.4826 0.723095 63.4081 0.105822 68.7784C-0.459935 73.692 3.29037 78.1963 6.73855 81.1675C8.43643 82.6305 10.2958 83.8672 12.211 85.0235C14.4892 86.3984 13.6237 83.106 12.3289 82.3238Z" fill="#010101"/>
<path d="M5.37048 38.1953C4.38503 38.1953 3.58594 38.995 3.58594 39.9799C3.58594 40.965 4.38503 41.7641 5.37048 41.7641C6.35624 41.7641 7.15503 40.965 7.15503 39.9799C7.15503 38.9947 6.35624 38.1953 5.37048 38.1953Z" fill="#1CBFF1"/>
<path d="M7.53165 36.2041C6.55923 36.2041 5.76953 36.9923 5.76953 37.9656C5.76953 38.938 6.55892 39.7271 7.53165 39.7271C8.50468 39.7271 9.29317 38.938 9.29317 37.9656C9.29317 36.9923 8.50468 36.2041 7.53165 36.2041Z" fill="#1CBFF1"/>
<path d="M10.1858 34.248C9.22575 34.248 8.44727 35.0265 8.44727 35.9871C8.44727 36.9471 9.22575 37.7262 10.1858 37.7262C11.1467 37.7262 11.9248 36.9471 11.9248 35.9871C11.9245 35.0265 11.1464 34.248 10.1858 34.248Z" fill="#1CBFF1"/>
<path d="M13.2984 32.3311C12.3508 32.3311 11.582 33.0992 11.582 34.0474C11.582 34.9944 12.3508 35.7635 13.2984 35.7635C14.2472 35.7635 15.0148 34.9947 15.0148 34.0474C15.0148 33.0989 14.2472 32.3311 13.2984 32.3311Z" fill="#1CBFF1"/>
<path d="M16.1953 30.3945C15.2604 30.3945 14.502 31.1524 14.502 32.0879C14.502 33.0233 15.2604 33.7812 16.1953 33.7812C17.131 33.7812 17.8889 33.0233 17.8889 32.0879C17.8892 31.1527 17.131 30.3945 16.1953 30.3945Z" fill="#1CBFF1"/>
<path d="M18.6048 28.4199C17.6821 28.4199 16.9336 29.1678 16.9336 30.0905C16.9336 31.013 17.6818 31.7617 18.6048 31.7617C19.5278 31.7617 20.2751 31.013 20.2751 30.0905C20.2751 29.1678 19.5278 28.4199 18.6048 28.4199Z" fill="#1CBFF1"/>
<path d="M20.5173 26.4141C19.6073 26.4141 18.8691 27.1519 18.8691 28.0622C18.8691 28.9722 19.6073 29.7098 20.5173 29.7098C21.4279 29.7098 22.1655 28.9719 22.1655 28.0622C22.1655 27.1519 21.4279 26.4141 20.5173 26.4141Z" fill="#1CBFF1"/>
<path d="M21.9226 24.3809C21.0254 24.3809 20.2969 25.1084 20.2969 26.006C20.2969 26.9039 21.0254 27.6315 21.9226 27.6315C22.8208 27.6315 23.5478 26.9039 23.5478 26.006C23.5478 25.1084 22.8208 24.3809 21.9226 24.3809Z" fill="#1CBFF1"/>
<path d="M22.8176 22.3271C21.9324 22.3271 21.2148 23.0444 21.2148 23.9299C21.2148 24.8144 21.9324 25.5323 22.8176 25.5323C23.7027 25.5323 24.42 24.8144 24.42 23.9299C24.42 23.0444 23.7027 22.3271 22.8176 22.3271Z" fill="#1CBFF1"/>
<path d="M23.193 20.2578C22.3206 20.2578 21.6133 20.9654 21.6133 21.8381C21.6133 22.7096 22.3209 23.4175 23.193 23.4175C24.066 23.4175 24.7727 22.7096 24.7727 21.8381C24.7727 20.9651 24.066 20.2578 23.193 20.2578Z" fill="#1CBFF1"/>
<path d="M23.0436 18.1797C22.1839 18.1797 21.4863 18.8767 21.4863 19.737C21.4863 20.5964 22.1836 21.2942 23.0436 21.2942C23.9039 21.2942 24.6003 20.5964 24.6003 19.737C24.6003 18.8767 23.9039 18.1797 23.0436 18.1797Z" fill="#1CBFF1"/>
<path d="M22.3588 16.0967C21.5115 16.0967 20.8242 16.7836 20.8242 17.6312C20.8242 18.4785 21.5115 19.1655 22.3588 19.1655C23.2069 19.1655 23.893 18.4785 23.893 17.6312C23.893 16.7836 23.2069 16.0967 22.3588 16.0967Z" fill="#1CBFF1"/>
<path d="M21.1355 14.0156C20.3006 14.0156 19.623 14.6923 19.623 15.5271C19.623 16.362 20.3006 17.0387 21.1355 17.0387C21.9706 17.0387 22.647 16.362 22.647 15.5271C22.647 14.6923 21.9706 14.0156 21.1355 14.0156Z" fill="#1CBFF1"/>
<path d="M19.3657 11.9424C18.5439 11.9424 17.877 12.6087 17.877 13.4318C17.877 14.2533 18.5439 14.9203 19.3657 14.9203C20.1888 14.9203 20.8545 14.2533 20.8545 13.4318C20.8545 12.6087 20.1888 11.9424 19.3657 11.9424Z" fill="#1CBFF1"/>
<path d="M17.0406 9.88184C16.2309 9.88184 15.5742 10.5385 15.5742 11.3482C15.5742 12.1579 16.2309 12.8146 17.0406 12.8146C17.8506 12.8146 18.5069 12.1579 18.5069 11.3482C18.5069 10.5385 17.8506 9.88184 17.0406 9.88184Z" fill="#1CBFF1"/>
<path d="M14.1546 7.83984C13.3579 7.83984 12.7109 8.48621 12.7109 9.28348C12.7109 10.0801 13.3579 10.7271 14.1546 10.7271C14.9525 10.7271 15.5982 10.0801 15.5982 9.28348C15.5982 8.48651 14.9528 7.83984 14.1546 7.83984Z" fill="#1CBFF1"/>
<path d="M10.8428 5.81641C10.0582 5.81641 9.42188 6.45247 9.42188 7.23732C9.42188 8.02156 10.0582 8.65823 10.8428 8.65823C11.6279 8.65823 12.2637 8.02156 12.2637 7.23732C12.264 6.45247 11.6279 5.81641 10.8428 5.81641Z" fill="#1CBFF1"/>
<path d="M7.95708 3.77441C7.18496 3.77441 6.55859 4.40017 6.55859 5.17229C6.55859 5.94442 7.18496 6.57078 7.95708 6.57078C8.73011 6.57078 9.35496 5.94442 9.35496 5.17229C9.35496 4.40048 8.72981 3.77441 7.95708 3.77441Z" fill="#1CBFF1"/>
<path d="M5.63131 1.71484C4.87222 1.71484 4.25586 2.3303 4.25586 3.0903C4.25586 3.84939 4.87192 4.46575 5.63131 4.46575C6.39101 4.46575 7.00677 3.84969 7.00677 3.0903C7.00677 2.3303 6.39101 1.71484 5.63131 1.71484Z" fill="#1CBFF1"/>
<path d="M3.86054 -0.359375C3.11387 -0.359375 2.50781 0.246685 2.50781 0.993654C2.50781 1.74002 3.11387 2.34608 3.86054 2.34608C4.60812 2.34608 5.21327 1.74002 5.21327 0.993654C5.21327 0.246685 4.60781 -0.359375 3.86054 -0.359375Z" fill="#1CBFF1"/>
<path d="M2.63664 -2.44043C1.9024 -2.44043 1.30664 -1.84528 1.30664 -1.11043C1.30664 -0.376793 1.9027 0.219267 2.63664 0.219267C3.37149 0.219267 3.96634 -0.376793 3.96634 -1.11043C3.96634 -1.84528 3.37149 -2.44043 2.63664 -2.44043Z" fill="#1CBFF1"/>
<path d="M3.04641 19.029C3.25217 12.5475 9.97369 8.68961 14.8113 5.67597C19.3819 2.82839 24.3958 -1.50221 24.46 -7.33615C24.4707 -8.27706 23.7682 -9.22312 23.0349 -9.74858C22.5558 -10.0919 21.5028 -10.4143 21.4922 -9.46615C21.4234 -3.22554 15.0904 0.819303 10.3507 3.6687C5.60066 6.52446 0.269443 10.8848 0.0785341 16.8993C0.038231 18.1748 2.98944 20.8278 3.04641 19.029Z" fill="#010101"/>
</g>
</svg>
