<?xml version="1.0" encoding="UTF-8"?>
<svg width="21px" height="21px" viewBox="0 0 21 21" version="1.1" xmlns="http://www.w3.org/2000/svg" xmlns:xlink="http://www.w3.org/1999/xlink">
    <title>Group</title>
    <g id="Symbols" stroke="none" stroke-width="1" fill="none" fill-rule="evenodd">
        <g id="Group">
            <path d="M19.479,0 L1.583,0 C0.727,0 0,0.677 0,1.511 L0,19.488 C0,20.323 0.477,21 1.333,21 L19.229,21 C20.086,21 21,20.323 21,19.488 L21,1.511 C21,0.677 20.336,0 19.479,0" id="Path"></path>
            <path d="M19.479,0 L1.583,0 C0.727,0 0,0.677 0,1.511 L0,19.488 C0,20.323 0.477,21 1.333,21 L19.229,21 C20.086,21 21,20.323 21,19.488 L21,1.511 C21,0.677 20.336,0 19.479,0 Z M8,8 L10.827,8 L10.827,9.441 L10.858,9.441 C11.289,8.664 12.562,7.875 14.136,7.875 C17.157,7.875 18,9.479 18,12.45 L18,18 L15,18 L15,12.997 C15,11.667 14.469,10.5 13.227,10.5 C11.719,10.5 11,11.521 11,13.197 L11,18 L8,18 L8,8 Z M6,8 L6,18 L3,18 L3,8 L6,8 Z M4.5,2.625 C5.536,2.625 6.375,3.464 6.375,4.5 C6.375,5.536 5.536,6.375 4.5,6.375 C3.464,6.375 2.625,5.536 2.625,4.5 C2.625,3.464 3.464,2.625 4.5,2.625 Z" id="Shape" fill="#0073B0" fill-rule="nonzero"></path>
        </g>
    </g>
</svg>