<svg width="124" height="124" viewBox="0 0 124 124" fill="none" xmlns="http://www.w3.org/2000/svg">
<path d="M26.3996 78.2003C26.3996 85.3003 20.5996 91.1003 13.4996 91.1003C6.39961 91.1003 0.599609 85.3003 0.599609 78.2003C0.599609 71.1003 6.39961 65.3003 13.4996 65.3003H26.3996V78.2003Z" fill="black"/>
<path d="M32.8994 78.2003C32.8994 71.1003 38.6994 65.3003 45.7994 65.3003C52.8994 65.3003 58.6994 71.1003 58.6994 78.2003V110.5C58.6994 117.6 52.8994 123.4 45.7994 123.4C38.6994 123.4 32.8994 117.6 32.8994 110.5V78.2003Z" fill="black"/>
<path d="M45.7994 26.4001C38.6994 26.4001 32.8994 20.6001 32.8994 13.5001C32.8994 6.4001 38.6994 0.600098 45.7994 0.600098C52.8994 0.600098 58.6994 6.4001 58.6994 13.5001V26.4001H45.7994Z" fill="black"/>
<path d="M45.7996 32.8999C52.8996 32.8999 58.6996 38.6999 58.6996 45.7999C58.6996 52.8999 52.8996 58.6999 45.7996 58.6999H13.4996C6.39961 58.6999 0.599609 52.8999 0.599609 45.7999C0.599609 38.6999 6.39961 32.8999 13.4996 32.8999H45.7996Z" fill="black"/>
<path d="M97.5996 45.7999C97.5996 38.6999 103.4 32.8999 110.5 32.8999C117.6 32.8999 123.4 38.6999 123.4 45.7999C123.4 52.8999 117.6 58.6999 110.5 58.6999H97.5996V45.7999Z" fill="black"/>
<path d="M91.0998 45.8001C91.0998 52.9001 85.2998 58.7001 78.1998 58.7001C71.0998 58.7001 65.2998 52.9001 65.2998 45.8001V13.5001C65.2998 6.4001 71.0998 0.600098 78.1998 0.600098C85.2998 0.600098 91.0998 6.4001 91.0998 13.5001V45.8001Z" fill="black"/>
<path d="M78.1998 97.6001C85.2998 97.6001 91.0998 103.4 91.0998 110.5C91.0998 117.6 85.2998 123.4 78.1998 123.4C71.0998 123.4 65.2998 117.6 65.2998 110.5V97.6001H78.1998Z" fill="black"/>
<path d="M78.1998 91.1003C71.0998 91.1003 65.2998 85.3003 65.2998 78.2003C65.2998 71.1003 71.0998 65.3003 78.1998 65.3003H110.5C117.6 65.3003 123.4 71.1003 123.4 78.2003C123.4 85.3003 117.6 91.1003 110.5 91.1003H78.1998Z" fill="black"/>
</svg>
