<?xml version="1.0" encoding="UTF-8"?>
<svg width="78px" height="78px" viewBox="0 0 78 78" version="1.1" xmlns="http://www.w3.org/2000/svg" xmlns:xlink="http://www.w3.org/1999/xlink">
    <!-- Generator: Sketch 59.1 (86144) - https://sketch.com -->
    <title>anVIL/logo/hhs-svg@3x</title>
    <desc>Created with Sketch.</desc>
    <g id="Symbols" stroke="none" stroke-width="1" fill="none" fill-rule="evenodd">
        <g id="anVIL/logo/hhs-svg" fill="#FFFFFF">
            <g id="Group">
                <path d="M38.99,76.34 C38.79,76.36 38.6,76.36 38.4,76.35 C37.42,76.33 36.8,75.87 36.82,74.78 C36.84,73.88 37.39,73.4 38.2,73.42 C38.5,73.42 38.74,73.47 39.04,73.52 L38.99,76.34 Z M39.97,73.26 L38.27,73.23 C37.2,73.21 36.33,73.7 36.31,74.95 C36.29,76.14 37.16,76.51 38.15,76.53 L39.91,76.56 L39.91,76.4 L39.45,76.31 L39.5,73.49 L39.96,73.42 L39.97,73.26 Z" id="Shape" fill-rule="nonzero"></path>
                <path d="M38.99,76.34 C38.79,76.36 38.6,76.36 38.4,76.35 C37.42,76.33 36.8,75.87 36.82,74.78 C36.84,73.88 37.39,73.4 38.2,73.42 C38.5,73.42 38.74,73.47 39.04,73.52 L38.99,76.34 Z M39.97,73.26 L38.27,73.23 C37.2,73.21 36.33,73.7 36.31,74.95 C36.29,76.14 37.16,76.51 38.15,76.53 L39.91,76.56 L39.91,76.4 L39.45,76.31 L39.5,73.49 L39.96,73.42 L39.97,73.26 Z" id="Shape" fill-rule="nonzero"></path>
                <path d="M34.46,76.02 L33.42,75.89 L33.35,75.41 L33.2,75.4 L33.18,76.13 L35.34,76.4 L35.36,76.24 L34.91,76.11 L35.25,73.31 L35.72,73.29 L35.74,73.13 L33.36,72.84 L33.07,73.61 L33.24,73.63 L33.49,73.14 L34.79,73.3 L34.63,74.58 L33.76,74.47 L33.72,74.1 L33.58,74.08 C33.58,74.34 33.52,74.78 33.46,75.03 L33.6,75.05 L33.73,74.71 L34.59,74.82 L34.46,76.02 Z" id="Path" fill-rule="nonzero"></path>
                <path d="M32.62,72.88 L32.65,72.72 L31.2,72.41 L31.17,72.57 L31.67,72.76 L31.08,75.56 C30.96,75.55 30.84,75.53 30.72,75.5 C30.31,75.41 30.05,75.14 30.12,74.64 C30.17,74.27 30.38,73.81 31.01,73.94 C31.09,73.96 31.16,73.99 31.23,74.02 L31.25,74 L31.28,73.87 C31.18,73.83 31.08,73.79 30.97,73.77 C30.34,73.63 29.77,73.99 29.63,74.63 C29.49,75.27 29.97,75.54 30.56,75.66 L31.97,75.96 L32,75.79 L31.54,75.61 L32.13,72.85 L32.62,72.88 Z" id="Path" fill-rule="nonzero"></path>
                <path d="M27.42,72.61 L27.36,71.55 L27.82,71.63 L27.87,71.48 L26.58,71.04 L26.53,71.19 L26.88,71.4 L27.09,74.78 L27.32,74.86 L29.51,72.3 L29.92,72.36 L29.97,72.21 L28.85,71.83 L28.8,71.98 L29.21,72.21 L28.55,73 L27.42,72.61 Z M27.52,74.24 L27.44,72.87 L28.39,73.2 L27.52,74.24 Z" id="Shape" fill-rule="nonzero"></path>
                <path d="M27.42,72.61 L27.36,71.55 L27.82,71.63 L27.87,71.48 L26.58,71.04 L26.53,71.19 L26.88,71.4 L27.09,74.78 L27.32,74.86 L29.51,72.3 L29.92,72.36 L29.97,72.21 L28.85,71.83 L28.8,71.98 L29.21,72.21 L28.55,73 L27.42,72.61 Z M27.52,74.24 L27.44,72.87 L28.39,73.2 L27.52,74.24 Z" id="Shape" fill-rule="nonzero"></path>
                <path d="M24.02,73.38 C23.94,73.37 23.86,73.34 23.78,73.3 C23.29,73.08 23.17,72.7 23.38,72.22 C23.65,71.61 23.91,71.7 24.45,71.94 C24.51,71.97 24.58,72 24.63,72.02 L24.02,73.38 Z M26.09,71.08 L26.15,70.93 L24.86,70.35 L24.8,70.5 L25.19,70.76 L24.72,71.82 C24.56,71.75 24.4,71.68 24.26,71.63 C24.17,71.11 24.04,70.55 23.88,70.02 C23.87,69.98 23.72,69.87 23.63,69.8 L23.34,69.57 L23.24,69.68 C23.46,69.91 23.53,70.28 23.6,70.57 L23.83,71.56 C23.44,71.63 23.06,71.84 22.89,72.21 C22.66,72.72 22.97,73.13 23.4,73.32 L24.82,73.95 L24.88,73.8 L24.47,73.53 L25.62,70.96 L26.09,71.08 Z" id="Shape" fill-rule="nonzero"></path>
                <path d="M24.02,73.38 C23.94,73.37 23.86,73.34 23.78,73.3 C23.29,73.08 23.17,72.7 23.38,72.22 C23.65,71.61 23.91,71.7 24.45,71.94 C24.51,71.97 24.58,72 24.63,72.02 L24.02,73.38 Z M26.09,71.08 L26.15,70.93 L24.86,70.35 L24.8,70.5 L25.19,70.76 L24.72,71.82 C24.56,71.75 24.4,71.68 24.26,71.63 C24.17,71.11 24.04,70.55 23.88,70.02 C23.87,69.98 23.72,69.87 23.63,69.8 L23.34,69.57 L23.24,69.68 C23.46,69.91 23.53,70.28 23.6,70.57 L23.83,71.56 C23.44,71.63 23.06,71.84 22.89,72.21 C22.66,72.72 22.97,73.13 23.4,73.32 L24.82,73.95 L24.88,73.8 L24.47,73.53 L25.62,70.96 L26.09,71.08 Z" id="Shape" fill-rule="nonzero"></path>
                <path d="M22.24,69.28 L22.32,69.14 L21.01,68.38 L20.93,68.52 L21.34,68.85 L19.94,71.27 L19.42,70.97 C19.27,70.88 19.13,70.79 19,70.71 L19.16,70.2 L19.01,70.11 L18.64,70.83 L21.32,72.38 L21.81,71.73 L21.67,71.65 L21.26,72.02 C21.13,71.96 20.99,71.89 20.84,71.8 L20.33,71.51 L21.73,69.09 L22.24,69.28 Z" id="Path" fill-rule="nonzero"></path>
                <polygon id="Path" fill-rule="nonzero" points="14.58 67.78 14.49 67.91 15.3 68.5 17.56 67.14 16.98 69.72 17.81 70.32 17.9 70.19 17.55 69.83 19.43 67.72 19.8 67.89 19.9 67.76 18.99 67.11 18.9 67.24 19.21 67.56 17.5 69.5 17.5 69.51 17.49 69.5 18.16 66.53 18.12 66.5 15.48 68.11 15.47 68.11 15.46 68.11 16.82 65.82 17.24 66.03 17.33 65.9 16.23 65.1 16.13 65.22 16.44 65.55 15.01 67.99"></polygon>
                <path d="M13.04,66.21 L12.3,65.47 L12.54,65.05 L12.44,64.95 L11.97,65.51 L13.51,67.05 L13.62,66.94 L13.35,66.56 L15.34,64.56 L15.72,64.83 L15.83,64.72 L14.13,63.02 L13.42,63.45 L13.54,63.57 L14.04,63.34 L14.97,64.27 L14.06,65.18 L13.44,64.56 L13.64,64.24 L13.54,64.14 C13.38,64.34 13.07,64.65 12.86,64.81 L12.96,64.91 L13.27,64.72 L13.88,65.34 L13.04,66.21 Z" id="Path" fill-rule="nonzero"></path>
                <path d="M13.47,62.7 L13.59,62.6 L12.81,61.67 L12.69,61.77 L12.94,62.19 L11.04,63.78 C11.14,63.02 11.48,60.58 11.54,60.11 L11.39,59.93 L9.03,61.92 L8.67,61.62 L8.55,61.72 L9.32,62.64 L9.44,62.54 L9.21,62.13 L11,60.63 L10.52,64.06 L11.08,64.72 L11.2,64.62 L10.96,64.21 L13.12,62.4 L13.47,62.7 Z" id="Path" fill-rule="nonzero"></path>
                <path d="M10.19,58.61 L10.32,58.52 L9.47,57.27 L9.34,57.36 L9.57,57.84 L7.25,59.4 L6.92,58.9 C6.82,58.75 6.73,58.61 6.66,58.48 L7.03,58.09 L6.93,57.94 L6.28,58.43 L8.01,61 L8.74,60.63 L8.65,60.49 L8.12,60.64 C8.03,60.53 7.93,60.4 7.84,60.26 L7.51,59.77 L9.83,58.21 L10.19,58.61 Z" id="Path" fill-rule="nonzero"></path>
                <path d="M3.98,54.07 C4.39,55.02 5.26,55.34 6.26,54.92 C7.13,54.55 7.58,53.73 7.11,52.62 C6.71,51.68 5.85,51.32 4.97,51.69 C3.97,52.12 3.51,52.96 3.98,54.07 M5.86,54.54 C5.07,54.88 4.43,54.67 4.15,54.02 C3.88,53.39 4.2,52.56 5.11,52.17 C5.82,51.87 6.58,51.85 6.92,52.66 C7.25,53.42 6.82,54.14 5.86,54.54" id="Shape" fill-rule="nonzero"></path>
                <path d="M3.98,54.07 C4.39,55.02 5.26,55.34 6.26,54.92 C7.13,54.55 7.58,53.73 7.11,52.62 C6.71,51.68 5.85,51.32 4.97,51.69 C3.97,52.12 3.51,52.96 3.98,54.07 M5.86,54.54 C5.07,54.88 4.43,54.67 4.15,54.02 C3.88,53.39 4.2,52.56 5.11,52.17 C5.82,51.87 6.58,51.85 6.92,52.66 C7.25,53.42 6.82,54.14 5.86,54.54" id="Shape" fill-rule="nonzero"></path>
                <path d="M4.37,49.01 L4.33,48.88 C4.1,48.99 3.68,49.12 3.42,49.17 L3.46,49.3 L3.83,49.28 L4.12,50.18 L2.96,50.56 L2.63,49.54 L3.06,49.28 L3.01,49.13 L2.31,49.42 L3.01,51.57 L3.16,51.52 L3.08,51.01 L5.76,50.14 L6,50.6 L6.15,50.55 L5.69,49.14 L5.54,49.19 L5.62,49.7 L4.35,50.11 L4.06,49.2 L4.37,49.01 Z" id="Path" fill-rule="nonzero"></path>
                <polygon id="Path" fill-rule="nonzero" points="3.07 45.33 2.74 43.49 4.08 43.25 4.24 43.69 4.4 43.66 4.16 42.3 4 42.32 4 42.79 1.23 43.28 1.07 42.84 0.91 42.87 1.15 44.24 1.31 44.21 1.31 43.74 2.51 43.53 2.83 45.37 1.63 45.58 1.47 45.14 1.31 45.17 1.55 46.54 1.71 46.51 1.71 46.04 4.49 45.55 4.65 45.99 4.8 45.96 4.56 44.59 4.41 44.62 4.41 45.09"></polygon>
                <path d="M1.1,41.08 L1.03,40.04 L1.48,39.88 L1.47,39.73 L0.75,39.85 L0.9,42.02 L1.06,42.01 L1.11,41.54 L3.92,41.34 L4.03,41.8 L4.19,41.79 L4.02,39.39 L3.21,39.25 L3.22,39.42 L3.75,39.58 L3.84,40.89 L2.55,40.98 L2.49,40.11 L2.85,40 L2.84,39.86 C2.59,39.91 2.14,39.94 1.89,39.93 L1.9,40.07 L2.26,40.13 L2.31,41 L1.1,41.08 Z" id="Path" fill-rule="nonzero"></path>
                <path d="M2.85,36.52 L3.84,36.13 L3.91,36.59 L4.07,36.59 L4.09,35.22 L3.93,35.22 L3.84,35.62 L0.7,36.87 L0.7,37.11 L3.8,38.4 L3.87,38.8 L4.03,38.8 L4.05,37.62 L3.89,37.62 L3.8,38.08 L2.82,37.71 L2.85,36.52 Z M1.33,37.11 L2.61,36.61 L2.59,37.62 L1.33,37.11 Z" id="Shape" fill-rule="nonzero"></path>
                <path d="M2.85,36.52 L3.84,36.13 L3.91,36.59 L4.07,36.59 L4.09,35.22 L3.93,35.22 L3.84,35.62 L0.7,36.87 L0.7,37.11 L3.8,38.4 L3.87,38.8 L4.03,38.8 L4.05,37.62 L3.89,37.62 L3.8,38.08 L2.82,37.71 L2.85,36.52 Z M1.33,37.11 L2.61,36.61 L2.59,37.62 L1.33,37.11 Z" id="Shape" fill-rule="nonzero"></path>
                <polygon id="Path" fill-rule="nonzero" points="4.21 34.72 4.62 32.4 3.74 32.03 3.71 32.19 4.29 32.57 4.09 33.75 1.36 33.27 1.36 32.8 1.2 32.78 0.96 34.14 1.12 34.17 1.28 33.73 4.05 34.22 4.05 34.69"></polygon>
                <path d="M4.65,31.38 L4.81,31.42 L5.18,29.95 L5.02,29.91 L4.81,30.4 L2.1,29.73 L2.24,29.15 C2.28,28.98 2.33,28.82 2.38,28.67 L2.92,28.69 L2.96,28.52 L2.16,28.36 L1.41,31.37 L2.17,31.66 L2.21,31.5 L1.75,31.2 C1.78,31.06 1.8,30.9 1.85,30.74 L1.99,30.17 L4.7,30.85 L4.65,31.38 Z" id="Path" fill-rule="nonzero"></path>
                <polygon id="Path" fill-rule="nonzero" points="4.27 27.33 4.88 25.56 6.17 26.01 6.09 26.47 6.25 26.52 6.7 25.21 6.54 25.16 6.32 25.57 3.66 24.65 3.73 24.19 3.58 24.13 3.13 25.45 3.28 25.5 3.5 25.09 4.66 25.49 4.05 27.26 2.89 26.86 2.97 26.39 2.82 26.34 2.36 27.66 2.52 27.71 2.74 27.3 5.41 28.21 5.33 28.68 5.48 28.73 5.94 27.42 5.79 27.36 5.56 27.78"></polygon>
                <path d="M6.96,22.35 C6.67,22.18 6.55,21.86 6.56,21.54 C7.07,21.26 7.59,20.99 8.09,20.73 C8.23,21.08 8.28,21.46 8.14,21.82 C7.95,22.32 7.46,22.64 6.96,22.35 M6.21,21.23 C6,21.25 5.86,21.27 5.67,21.16 C5.43,21.02 5.33,20.79 5.48,20.54 C5.61,20.32 5.88,20.36 6.08,20.47 C6.33,20.62 6.44,20.83 6.46,21.17 L6.21,21.23 Z M6.43,21.57 C6.39,21.93 6.37,22.51 6.89,22.81 C7.37,23.09 7.87,22.87 8.24,22.22 C8.51,21.74 8.4,21.16 8.21,20.68 C8.51,20.58 8.84,20.58 9.15,20.59 L9.46,19.89 L9.34,19.82 C9.09,20.4 8.62,20.02 8.01,20.32 C7.89,20.16 7.75,20 7.55,19.89 C7.07,19.61 6.7,19.78 6.68,19.82 C6.63,19.91 6.58,20.14 6.54,20.25 L6.62,20.29 C6.7,20.1 6.78,20 6.99,19.97 C7.31,19.92 7.67,20.09 7.89,20.4 C7.72,20.48 7.56,20.56 7.4,20.65 L6.57,21.1 C6.59,20.75 6.54,20.41 6.21,20.22 C5.93,20.06 5.55,20.16 5.39,20.43 C5.14,20.86 5.3,21.28 5.67,21.49 C5.9,21.63 6.18,21.66 6.43,21.57" id="Shape" fill-rule="nonzero"></path>
                <path d="M6.96,22.35 C6.67,22.18 6.55,21.86 6.56,21.54 C7.07,21.26 7.59,20.99 8.09,20.73 C8.23,21.08 8.28,21.46 8.14,21.82 C7.95,22.32 7.46,22.64 6.96,22.35 M6.21,21.23 C6,21.25 5.86,21.27 5.67,21.16 C5.43,21.02 5.33,20.79 5.48,20.54 C5.61,20.32 5.88,20.36 6.08,20.47 C6.33,20.62 6.44,20.83 6.46,21.17 L6.21,21.23 Z M6.43,21.57 C6.39,21.93 6.37,22.51 6.89,22.81 C7.37,23.09 7.87,22.87 8.24,22.22 C8.51,21.74 8.4,21.16 8.21,20.68 C8.51,20.58 8.84,20.58 9.15,20.59 L9.46,19.89 L9.34,19.82 C9.09,20.4 8.62,20.02 8.01,20.32 C7.89,20.16 7.75,20 7.55,19.89 C7.07,19.61 6.7,19.78 6.68,19.82 C6.63,19.91 6.58,20.14 6.54,20.25 L6.62,20.29 C6.7,20.1 6.78,20 6.99,19.97 C7.31,19.92 7.67,20.09 7.89,20.4 C7.72,20.48 7.56,20.56 7.4,20.65 L6.57,21.1 C6.59,20.75 6.54,20.41 6.21,20.22 C5.93,20.06 5.55,20.16 5.39,20.43 C5.14,20.86 5.3,21.28 5.67,21.49 C5.9,21.63 6.18,21.66 6.43,21.57" id="Shape" fill-rule="nonzero"></path>
                <polygon id="Path" fill-rule="nonzero" points="9.84 16.7 10.99 15.23 12.06 16.07 11.84 16.48 11.97 16.58 12.82 15.48 12.69 15.38 12.35 15.7 10.13 13.97 10.35 13.55 10.22 13.45 9.37 14.55 9.49 14.65 9.84 14.33 10.8 15.08 9.65 16.56 8.69 15.81 8.91 15.39 8.78 15.29 7.93 16.39 8.06 16.49 8.4 16.17 10.62 17.9 10.4 18.32 10.53 18.42 11.38 17.32 11.26 17.22 10.91 17.54"></polygon>
                <path d="M13.62,10.32 L13.5,10.21 L12.58,11.13 L12.7,11.24 L13.08,10.97 L14.23,12.12 C14.41,12.3 14.71,12.6 14.73,12.88 C14.77,13.24 14.56,13.57 14.39,13.74 C13.88,14.25 13.35,14.12 12.87,13.62 L11.66,12.4 L11.93,12.02 L11.82,11.9 L10.84,12.88 L10.95,12.99 L11.33,12.72 L12.67,14.06 C13.17,14.59 13.85,14.65 14.55,13.95 C15.3,13.2 15.12,12.48 14.47,11.83 L13.35,10.71 L13.62,10.32 Z" id="Path" fill-rule="nonzero"></path>
                <polygon id="Path" fill-rule="nonzero" points="17.72 7.17 17.63 7.04 16.82 7.65 17.46 10.2 15.17 8.89 14.35 9.51 14.44 9.64 14.89 9.4 16.36 11.82 16.09 12.13 16.19 12.26 17.08 11.59 16.98 11.46 16.58 11.66 15.22 9.46 15.22 9.45 15.23 9.45 17.87 10.96 17.91 10.93 17.15 7.93 17.14 7.92 17.15 7.91 18.94 9.88 18.62 10.22 18.72 10.35 19.81 9.53 19.71 9.4 19.31 9.6 17.39 7.52"></polygon>
                <path d="M21.57,7.15 L22.4,7.81 L22.03,8.1 L22.11,8.24 L23.3,7.58 L23.22,7.44 L22.83,7.56 L20.18,5.45 L19.97,5.57 L20.41,8.9 L20.1,9.17 L20.18,9.31 L21.21,8.74 L21.13,8.6 L20.69,8.75 L20.52,7.72 L21.57,7.15 Z M20.29,6.14 L21.37,7 L20.49,7.49 L20.29,6.14 Z" id="Shape" fill-rule="nonzero"></path>
                <path d="M21.57,7.15 L22.4,7.81 L22.03,8.1 L22.11,8.24 L23.3,7.58 L23.22,7.44 L22.83,7.56 L20.18,5.45 L19.97,5.57 L20.41,8.9 L20.1,9.17 L20.18,9.31 L21.21,8.74 L21.13,8.6 L20.69,8.75 L20.52,7.72 L21.57,7.15 Z M20.29,6.14 L21.37,7 L20.49,7.49 L20.29,6.14 Z" id="Shape" fill-rule="nonzero"></path>
                <path d="M23.64,7.28 L23.7,7.43 L24.82,6.95 L24.76,6.8 L24.28,6.92 L23.31,4.64 C24.01,4.96 26.24,5.99 26.67,6.2 L26.9,6.1 L25.69,3.26 L26.09,3 L26.03,2.85 L24.93,3.32 L24.99,3.47 L25.45,3.36 L26.36,5.51 L23.22,4.05 L22.42,4.39 L22.48,4.54 L22.94,4.43 L24.04,7.03 L23.64,7.28 Z" id="Path" fill-rule="nonzero"></path>
                <path d="M30.99,1.59 C30.76,1.61 30.52,1.58 30.29,1.63 C29.64,1.77 29.34,2.24 29.44,2.73 C29.69,3.9 31.18,3.32 31.35,4.11 C31.44,4.52 31.19,4.77 30.8,4.85 C30.6,4.89 30.22,4.87 30.08,4.7 C29.99,4.58 29.89,4.4 29.8,4.16 L29.65,4.23 L29.87,4.99 C30.14,5.11 30.55,5.1 30.87,5.03 C31.55,4.89 31.85,4.39 31.72,3.81 C31.52,2.88 30.02,3.42 29.84,2.54 C29.76,2.19 29.96,1.92 30.31,1.85 C30.7,1.77 30.92,2.03 31.06,2.35 L31.21,2.29 L30.99,1.59 Z" id="Path" fill-rule="nonzero"></path>
                <path d="M33.07,1.42 L34.11,1.29 L34.3,1.74 L34.45,1.72 L34.29,1.01 L32.13,1.27 L32.15,1.43 L32.62,1.45 L32.96,4.25 L32.5,4.39 L32.52,4.55 L34.9,4.26 L34.99,3.44 L34.82,3.46 L34.7,3.99 L33.4,4.15 L33.24,2.87 L34.11,2.76 L34.24,3.11 L34.38,3.09 C34.32,2.84 34.27,2.4 34.26,2.14 L34.12,2.16 L34.07,2.52 L33.21,2.62 L33.07,1.42 Z" id="Path" fill-rule="nonzero"></path>
                <path d="M36.52,1.01 C36.6,0.99 36.68,0.98 36.78,0.98 C37.31,0.97 37.59,1.26 37.6,1.79 C37.61,2.45 37.33,2.49 36.75,2.5 C36.68,2.5 36.6,2.5 36.55,2.5 L36.52,1.01 Z M35.62,3.96 L35.62,4.12 L37.03,4.1 L37.03,3.94 L36.57,3.87 L36.55,2.7 C36.73,2.7 36.9,2.69 37.05,2.67 C37.36,3.1 37.7,3.55 38.07,3.97 C38.1,4 38.28,4.04 38.39,4.07 L38.75,4.15 L38.79,4.01 C38.49,3.89 38.27,3.59 38.09,3.36 L37.47,2.56 C37.79,2.33 38.06,1.98 38.05,1.58 C38.04,1.02 37.59,0.78 37.11,0.79 L35.56,0.82 L35.56,0.98 L36.05,1.05 L36.1,3.87 L35.62,3.96 Z" id="Shape" fill-rule="nonzero"></path>
                <path d="M36.52,1.01 C36.6,0.99 36.68,0.98 36.78,0.98 C37.31,0.97 37.59,1.26 37.6,1.79 C37.61,2.45 37.33,2.49 36.75,2.5 C36.68,2.5 36.6,2.5 36.55,2.5 L36.52,1.01 Z M35.62,3.96 L35.62,4.12 L37.03,4.1 L37.03,3.94 L36.57,3.87 L36.55,2.7 C36.73,2.7 36.9,2.69 37.05,2.67 C37.36,3.1 37.7,3.55 38.07,3.97 C38.1,4 38.28,4.04 38.39,4.07 L38.75,4.15 L38.79,4.01 C38.49,3.89 38.27,3.59 38.09,3.36 L37.47,2.56 C37.79,2.33 38.06,1.98 38.05,1.58 C38.04,1.02 37.59,0.78 37.11,0.79 L35.56,0.82 L35.56,0.98 L36.05,1.05 L36.1,3.87 L35.62,3.96 Z" id="Shape" fill-rule="nonzero"></path>
                <path d="M40.24,1.01 L40.71,0.96 L40.72,0.8 L39.33,0.7 L39.32,0.86 L39.78,0.97 L40.75,4.14 L40.94,4.15 C41.3,3.33 41.92,1.94 42.32,1.14 L42.65,1.08 L42.66,0.92 L41.57,0.84 L41.56,1 L42.02,1.11 L40.99,3.4 L40.24,1.01 Z" id="Path" fill-rule="nonzero"></path>
                <polygon id="Path" fill-rule="nonzero" points="44.48 1.35 44.5 1.19 43.13 1.02 43.1 1.18 43.56 1.32 43.21 4.12 42.74 4.14 42.72 4.3 44.1 4.47 44.12 4.31 43.67 4.17 44.01 1.38"></polygon>
                <path d="M48.33,2.07 C47.98,1.89 47.44,1.7 47.11,1.63 C45.94,1.38 45.18,1.86 44.96,2.9 C44.7,4.13 45.41,4.79 46.46,5.01 C46.76,5.07 47.09,5.1 47.44,5.09 L47.91,4.54 L47.81,4.42 C47.47,4.79 47.04,4.92 46.56,4.82 C45.7,4.64 45.25,3.75 45.45,2.8 C45.63,1.94 46.21,1.67 47.04,1.84 C47.92,2.03 48.08,2.45 48.04,2.88 L48.2,2.91 L48.33,2.07 Z" id="Path" fill-rule="nonzero"></path>
                <path d="M50.22,2.86 L51.21,3.2 L51.18,3.68 L51.32,3.73 L51.49,3.02 L49.43,2.31 L49.38,2.46 L49.79,2.69 L48.87,5.35 L48.41,5.27 L48.36,5.42 L50.63,6.2 L51.08,5.5 L50.92,5.44 L50.57,5.86 L49.33,5.43 L49.75,4.21 L50.58,4.49 L50.54,4.9 L50.67,4.95 C50.73,4.7 50.87,4.28 50.98,4.05 L50.85,4 L50.65,4.31 L49.83,4.03 L50.22,2.86 Z" id="Path" fill-rule="nonzero"></path>
                <path d="M54.41,4.23 C54.21,4.12 54.03,3.95 53.82,3.85 C53.22,3.58 52.69,3.79 52.49,4.24 C52,5.34 53.55,5.74 53.22,6.48 C53.05,6.86 52.7,6.92 52.34,6.75 C52.15,6.67 51.86,6.42 51.84,6.2 C51.84,6.05 51.87,5.84 51.93,5.6 L51.77,5.57 L51.5,6.32 C51.65,6.57 51.99,6.81 52.29,6.94 C52.92,7.22 53.45,7 53.7,6.45 C54.09,5.58 52.56,5.14 52.92,4.31 C53.07,3.98 53.38,3.89 53.7,4.03 C54.07,4.19 54.09,4.53 54.01,4.88 L54.16,4.92 L54.41,4.23 Z" id="Path" fill-rule="nonzero"></path>
                <path d="M55.95,6.9 C56.05,6.69 55.97,6.44 55.77,6.34 C55.56,6.23 55.31,6.31 55.21,6.52 C55.11,6.73 55.19,6.98 55.39,7.08 C55.59,7.19 55.84,7.1 55.95,6.9" id="Path" fill-rule="nonzero"></path>
                <path d="M61.12,8.27 L61.21,8.14 L60.12,7.43 L60.03,7.57 L60.37,7.89 L59.49,9.25 C59.35,9.46 59.12,9.81 58.85,9.9 C58.51,10.01 58.14,9.88 57.94,9.75 C57.33,9.35 57.35,8.81 57.75,8.23 L58.68,6.79 L59.11,6.98 L59.2,6.85 L58.04,6.09 L57.95,6.22 L58.3,6.54 L57.27,8.13 C56.86,8.73 56.94,9.41 57.77,9.95 C58.66,10.53 59.33,10.2 59.83,9.43 L60.69,8.1 L61.12,8.27 Z" id="Path" fill-rule="nonzero"></path>
                <path d="M63.36,9.99 C63.2,9.83 63.08,9.62 62.9,9.47 C62.39,9.04 61.83,9.09 61.51,9.48 C60.74,10.4 62.12,11.22 61.6,11.83 C61.33,12.15 60.98,12.11 60.68,11.85 C60.53,11.72 60.31,11.4 60.36,11.18 C60.39,11.04 60.48,10.84 60.61,10.63 L60.47,10.56 L60,11.2 C60.07,11.48 60.34,11.81 60.58,12.01 C61.11,12.46 61.68,12.39 62.07,11.93 C62.68,11.2 61.33,10.35 61.91,9.66 C62.14,9.39 62.47,9.38 62.74,9.6 C63.05,9.86 62.98,10.19 62.81,10.5 L62.94,10.58 L63.36,9.99 Z" id="Path" fill-rule="nonzero"></path>
                <path d="M64.33,13.72 L63.92,14.7 L63.54,14.43 L63.42,14.55 L64.39,15.52 L64.5,15.4 L64.27,15.06 L65.56,11.93 L65.39,11.76 L62.31,13.1 L61.97,12.87 L61.86,12.98 L62.7,13.82 L62.81,13.7 L62.54,13.32 L63.48,12.87 L64.33,13.72 Z M64.96,12.21 L64.43,13.48 L63.72,12.77 L64.96,12.21 Z" id="Shape" fill-rule="nonzero"></path>
                <path d="M64.33,13.72 L63.92,14.7 L63.54,14.43 L63.42,14.55 L64.39,15.52 L64.5,15.4 L64.27,15.06 L65.56,11.93 L65.39,11.76 L62.31,13.1 L61.97,12.87 L61.86,12.98 L62.7,13.82 L62.81,13.7 L62.54,13.32 L63.48,12.87 L64.33,13.72 Z M64.96,12.21 L64.43,13.48 L63.72,12.77 L64.96,12.21 Z" id="Shape" fill-rule="nonzero"></path>
                <path d="M70.56,13.67 C71.07,16.36 68.98,18.41 66.95,20 L59.92,25.42 C59.92,25.42 46.86,35.45 46.27,36.16 C45.98,36.51 46.27,36.16 46.27,36.16 C44.27,38.22 43.9,44.06 42.46,47.91 C41.16,50.66 39.67,51.07 34.43,50.97 L28.3,50.97 C27.63,50.96 27.31,51.06 26.93,51.87 L26.29,51.83 C26.17,50.11 26.58,48.6 28.12,47.74 C28.91,47.4 29.77,47.49 30.64,47.49 C33.23,47.49 35.1,47.49 37.79,47.49 C38.56,47.43 39.1,47.2 39.35,46.6 C40.62,41.68 40.52,36.03 45.07,32.64 L59.42,21.5 C62.67,18.65 67.67,16.16 68.66,11.66 C69.74,11.88 70.23,12.7 70.56,13.67" id="Path" fill-rule="nonzero"></path>
                <path d="M75.26,19.17 C75.84,21.25 73.39,23.05 71.75,24.49 L63.02,31.42 L52.38,39.85 C50.58,41.46 50.6,44.15 50.17,46.48 C50.14,47.3 51.21,47.86 50.68,48.77 C49.75,50.34 48.68,51 49.23,51.73 C49.65,52.3 52.08,51.71 51.04,53.56 C50.86,54.54 52.93,53.65 51.86,54.45 C51.52,55.07 51.93,55.35 52.38,55.39 C52.99,55.64 51.95,56.75 52.5,57.52 C54.19,59.62 60.15,56.64 60.53,60.33 C60.75,64.41 52.26,64.03 54.4,69.29 C54.88,70.35 55.97,70.76 57.02,70.87 C57.47,70.89 57.92,70.83 58.7,70.7 L58.89,71.11 C58.89,71.11 58.63,71.37 57.88,71.86 C56.35,72.81 53.55,73.79 51.8,72.64 C50.64,71.78 50.11,70.69 50.08,69.36 C50.21,65.91 54.28,65.5 55.9,62.84 C56.2,62.38 56.13,61.57 55.8,61.13 C54.54,59.34 52.13,59.77 50.08,59.82 C49.19,59.79 48.49,59.4 48.37,58.51 C48.27,57.61 48.77,57.13 48.45,56.73 C48.14,56.4 47.6,56.43 47.46,56 C47.39,55.78 47.45,55.64 47.73,55.35 C48.53,54.84 46.2,55.23 47.02,54.02 C47.25,53.84 47.32,53.59 47.26,53.29 C46.78,52.39 45.34,53.29 45.01,52.24 C44.76,50.97 48.35,49.22 46.43,47.19 C46.44,47.13 46.39,47.02 46.38,46.95 C46.36,45.85 47.3,41.54 48.36,39.14 C48.97,37.86 50.46,36.89 51.57,35.93 L69.24,22.08 C71.05,20.62 72.96,19.21 73.26,16.86 C74.4,17.23 75.03,18.21 75.26,19.17" id="Path" fill-rule="nonzero"></path>
                <path d="M72.34,28.71 C72.71,29.98 72.62,31.81 71.51,32.83 L69.75,34.33 L58.09,43.46 C56.91,44.65 56.88,46.49 57.21,48.07 C57.83,49.07 56.11,50.19 56.89,50.69 C57.16,50.82 57.65,50.68 57.83,51.03 C58.15,51.48 57.52,51.97 58.1,52.19 C58.32,52.22 58.48,52.22 58.61,52.18 C59.1,52.23 58.01,52.71 58.58,53.19 C60.46,53.4 58.29,55.69 61.01,55.1 C63.68,54.5 66.28,53.11 69.24,53.79 C71.85,54.29 74.15,55.84 77.07,55.3 L77.43,55.2 C77.44,55.27 77.27,55.5 77.27,55.5 C75.47,57.86 73.27,59.52 69.86,58.68 C67.63,58.13 65.57,55.27 62.01,56.31 C60.19,56.83 57.31,57.36 56.09,56.61 C55.16,55.99 55.98,55.2 55.71,54.54 C55.52,54.08 55.21,54.47 54.99,54.08 C54.81,53.75 55.5,53.47 55.11,53.29 C54.91,53.23 54.58,53.21 54.47,53.11 C54.02,52.7 55.14,51.85 53.96,51.67 C53.41,51.55 52.66,51.49 52.59,51.08 C52.23,50.33 54.58,49.22 53.47,47.38 C53.2,46.94 53.56,43.77 54.78,41.97 C55.64,40.69 57.74,39.35 57.74,39.35 L70.14,29.71 C70.99,29 71.39,28.69 71.75,28 C71.98,27.54 72.3,28.55 72.34,28.71" id="Path" fill-rule="nonzero"></path>
                <path d="M35.82,55.56 C40.29,57.28 45.59,59.56 50.06,62.34 C50.92,62.92 51.3,64.01 50.96,65.05 C49.72,67.9 44.54,68.89 46.14,72.88 C46.69,74.3 48.01,75.4 49.55,75.49 C49.86,75.53 50.26,75.46 50.88,75.26 L51.26,75.8 C50.52,76.44 50.18,76.65 49.78,76.91 C48.86,77.51 47.43,78.12 45.44,77.79 C44.28,77.51 43.16,76.89 42.43,75.78 C41.73,74.72 41.61,73.01 42.23,71.86 C43.38,69.6 46.71,68.31 47.05,66.44 C47.22,65.4 46.19,64.47 45.34,63.93 C38.88,60.2 32,57.5 24.86,55.41 C23.96,55.16 22.56,54.71 21.58,56.03 L21.1,55.66 C21.17,54.46 21.82,53.3 22.93,52.72 C24.88,51.84 27.57,52.85 29.07,53.3 L35.82,55.56 Z" id="Path" fill-rule="nonzero"></path>
                <path d="M38.99,76.34 C38.79,76.36 38.6,76.36 38.4,76.35 C37.42,76.33 36.8,75.87 36.82,74.78 C36.84,73.88 37.39,73.4 38.2,73.42 C38.5,73.42 38.74,73.47 39.04,73.52 L38.99,76.34 Z M39.97,73.26 L38.27,73.23 C37.2,73.21 36.33,73.7 36.31,74.95 C36.29,76.14 37.16,76.51 38.15,76.53 L39.91,76.56 L39.91,76.4 L39.45,76.31 L39.5,73.49 L39.96,73.42 L39.97,73.26 Z" id="Shape"></path>
                <path d="M38.99,76.34 C38.79,76.36 38.6,76.36 38.4,76.35 C37.42,76.33 36.8,75.87 36.82,74.78 C36.84,73.88 37.39,73.4 38.2,73.42 C38.5,73.42 38.74,73.47 39.04,73.52 L38.99,76.34 Z M39.97,73.26 L38.27,73.23 C37.2,73.21 36.33,73.7 36.31,74.95 C36.29,76.14 37.16,76.51 38.15,76.53 L39.91,76.56 L39.91,76.4 L39.45,76.31 L39.5,73.49 L39.96,73.42 L39.97,73.26 Z" id="Shape" fill-rule="nonzero"></path>
                <path d="M38.99,76.34 C38.79,76.36 38.6,76.36 38.4,76.35 C37.42,76.33 36.8,75.87 36.82,74.78 C36.84,73.88 37.39,73.4 38.2,73.42 C38.5,73.42 38.74,73.47 39.04,73.52 L38.99,76.34 Z M39.97,73.26 L38.27,73.23 C37.2,73.21 36.33,73.7 36.31,74.95 C36.29,76.14 37.16,76.51 38.15,76.53 L39.91,76.56 L39.91,76.4 L39.45,76.31 L39.5,73.49 L39.96,73.42 L39.97,73.26 Z" id="Shape" fill-rule="nonzero"></path>
                <path d="M34.46,76.02 L33.42,75.89 L33.35,75.41 L33.2,75.4 L33.18,76.13 L35.34,76.4 L35.36,76.24 L34.91,76.11 L35.25,73.31 L35.72,73.29 L35.74,73.13 L33.36,72.84 L33.07,73.61 L33.24,73.63 L33.49,73.14 L34.79,73.3 L34.63,74.58 L33.76,74.47 L33.72,74.1 L33.58,74.08 C33.58,74.34 33.52,74.78 33.46,75.03 L33.6,75.05 L33.73,74.71 L34.59,74.82 L34.46,76.02 Z" id="Path" fill-rule="nonzero"></path>
                <path d="M34.46,76.02 L33.42,75.89 L33.35,75.41 L33.2,75.4 L33.18,76.13 L35.34,76.4 L35.36,76.24 L34.91,76.11 L35.25,73.31 L35.72,73.29 L35.74,73.13 L33.36,72.84 L33.07,73.61 L33.24,73.63 L33.49,73.14 L34.79,73.3 L34.63,74.58 L33.76,74.47 L33.72,74.1 L33.58,74.08 C33.58,74.34 33.52,74.78 33.46,75.03 L33.6,75.05 L33.73,74.71 L34.59,74.82 L34.46,76.02 Z" id="Path" fill-rule="nonzero"></path>
                <path d="M32.62,72.88 L32.65,72.72 L31.2,72.41 L31.17,72.57 L31.67,72.76 L31.08,75.56 C30.96,75.55 30.84,75.53 30.72,75.5 C30.31,75.41 30.05,75.14 30.12,74.64 C30.17,74.27 30.38,73.81 31.01,73.94 C31.09,73.96 31.16,73.99 31.23,74.02 L31.25,74 L31.28,73.87 C31.18,73.83 31.08,73.79 30.97,73.77 C30.34,73.63 29.77,73.99 29.63,74.63 C29.49,75.27 29.97,75.54 30.56,75.66 L31.97,75.96 L32,75.79 L31.54,75.61 L32.13,72.85 L32.62,72.88 Z" id="Path" fill-rule="nonzero"></path>
                <path d="M32.62,72.88 L32.65,72.72 L31.2,72.41 L31.17,72.57 L31.67,72.76 L31.08,75.56 C30.96,75.55 30.84,75.53 30.72,75.5 C30.31,75.41 30.05,75.14 30.12,74.64 C30.17,74.27 30.38,73.81 31.01,73.94 C31.09,73.96 31.16,73.99 31.23,74.02 L31.25,74 L31.28,73.87 C31.18,73.83 31.08,73.79 30.97,73.77 C30.34,73.63 29.77,73.99 29.63,74.63 C29.49,75.27 29.97,75.54 30.56,75.66 L31.97,75.96 L32,75.79 L31.54,75.61 L32.13,72.85 L32.62,72.88 Z" id="Path" fill-rule="nonzero"></path>
                <path d="M27.42,72.61 L27.36,71.55 L27.82,71.63 L27.87,71.48 L26.58,71.04 L26.53,71.19 L26.88,71.4 L27.09,74.78 L27.32,74.86 L29.51,72.3 L29.92,72.36 L29.97,72.21 L28.85,71.83 L28.8,71.98 L29.21,72.21 L28.55,73 L27.42,72.61 Z M27.52,74.24 L27.44,72.87 L28.39,73.2 L27.52,74.24 Z" id="Shape"></path>
                <path d="M27.42,72.61 L27.36,71.55 L27.82,71.63 L27.87,71.48 L26.58,71.04 L26.53,71.19 L26.88,71.4 L27.09,74.78 L27.32,74.86 L29.51,72.3 L29.92,72.36 L29.97,72.21 L28.85,71.83 L28.8,71.98 L29.21,72.21 L28.55,73 L27.42,72.61 Z M27.52,74.24 L27.44,72.87 L28.39,73.2 L27.52,74.24 Z" id="Shape" fill-rule="nonzero"></path>
                <path d="M27.42,72.61 L27.36,71.55 L27.82,71.63 L27.87,71.48 L26.58,71.04 L26.53,71.19 L26.88,71.4 L27.09,74.78 L27.32,74.86 L29.51,72.3 L29.92,72.36 L29.97,72.21 L28.85,71.83 L28.8,71.98 L29.21,72.21 L28.55,73 L27.42,72.61 Z M27.52,74.24 L27.44,72.87 L28.39,73.2 L27.52,74.24 Z" id="Shape" fill-rule="nonzero"></path>
                <path d="M24.02,73.38 C23.94,73.37 23.86,73.34 23.78,73.3 C23.29,73.08 23.17,72.7 23.38,72.22 C23.65,71.61 23.91,71.7 24.45,71.94 C24.51,71.97 24.58,72 24.63,72.02 L24.02,73.38 Z M26.09,71.08 L26.15,70.93 L24.86,70.35 L24.8,70.5 L25.19,70.76 L24.72,71.82 C24.56,71.75 24.4,71.68 24.26,71.63 C24.17,71.11 24.04,70.55 23.88,70.02 C23.87,69.98 23.72,69.87 23.63,69.8 L23.34,69.57 L23.24,69.68 C23.46,69.91 23.53,70.28 23.6,70.57 L23.83,71.56 C23.44,71.63 23.06,71.84 22.89,72.21 C22.66,72.72 22.97,73.13 23.4,73.32 L24.82,73.95 L24.88,73.8 L24.47,73.53 L25.62,70.96 L26.09,71.08 Z" id="Shape"></path>
                <path d="M24.02,73.38 C23.94,73.37 23.86,73.34 23.78,73.3 C23.29,73.08 23.17,72.7 23.38,72.22 C23.65,71.61 23.91,71.7 24.45,71.94 C24.51,71.97 24.58,72 24.63,72.02 L24.02,73.38 Z M26.09,71.08 L26.15,70.93 L24.86,70.35 L24.8,70.5 L25.19,70.76 L24.72,71.82 C24.56,71.75 24.4,71.68 24.26,71.63 C24.17,71.11 24.04,70.55 23.88,70.02 C23.87,69.98 23.72,69.87 23.63,69.8 L23.34,69.57 L23.24,69.68 C23.46,69.91 23.53,70.28 23.6,70.57 L23.83,71.56 C23.44,71.63 23.06,71.84 22.89,72.21 C22.66,72.72 22.97,73.13 23.4,73.32 L24.82,73.95 L24.88,73.8 L24.47,73.53 L25.62,70.96 L26.09,71.08 Z" id="Shape" fill-rule="nonzero"></path>
                <path d="M24.02,73.38 C23.94,73.37 23.86,73.34 23.78,73.3 C23.29,73.08 23.17,72.7 23.38,72.22 C23.65,71.61 23.91,71.7 24.45,71.94 C24.51,71.97 24.58,72 24.63,72.02 L24.02,73.38 Z M26.09,71.08 L26.15,70.93 L24.86,70.35 L24.8,70.5 L25.19,70.76 L24.72,71.82 C24.56,71.75 24.4,71.68 24.26,71.63 C24.17,71.11 24.04,70.55 23.88,70.02 C23.87,69.98 23.72,69.87 23.63,69.8 L23.34,69.57 L23.24,69.68 C23.46,69.91 23.53,70.28 23.6,70.57 L23.83,71.56 C23.44,71.63 23.06,71.84 22.89,72.21 C22.66,72.72 22.97,73.13 23.4,73.32 L24.82,73.95 L24.88,73.8 L24.47,73.53 L25.62,70.96 L26.09,71.08 Z" id="Shape" fill-rule="nonzero"></path>
                <path d="M22.24,69.28 L22.32,69.14 L21.01,68.38 L20.93,68.52 L21.34,68.85 L19.94,71.27 L19.42,70.97 C19.27,70.88 19.13,70.79 19,70.71 L19.16,70.2 L19.01,70.11 L18.64,70.83 L21.32,72.38 L21.81,71.73 L21.67,71.65 L21.26,72.02 C21.13,71.96 20.99,71.89 20.84,71.8 L20.33,71.51 L21.73,69.09 L22.24,69.28 Z" id="Path" fill-rule="nonzero"></path>
                <path d="M22.24,69.28 L22.32,69.14 L21.01,68.38 L20.93,68.52 L21.34,68.85 L19.94,71.27 L19.42,70.97 C19.27,70.88 19.13,70.79 19,70.71 L19.16,70.2 L19.01,70.11 L18.64,70.83 L21.32,72.38 L21.81,71.73 L21.67,71.65 L21.26,72.02 C21.13,71.96 20.99,71.89 20.84,71.8 L20.33,71.51 L21.73,69.09 L22.24,69.28 Z" id="Path" fill-rule="nonzero"></path>
                <polygon id="Path" fill-rule="nonzero" points="14.58 67.78 14.49 67.91 15.3 68.5 17.56 67.14 16.98 69.72 17.81 70.32 17.9 70.19 17.55 69.83 19.43 67.72 19.8 67.89 19.9 67.76 18.99 67.11 18.9 67.24 19.21 67.56 17.5 69.5 17.5 69.51 17.49 69.5 18.16 66.53 18.12 66.5 15.48 68.11 15.47 68.11 15.46 68.11 16.82 65.82 17.24 66.03 17.33 65.9 16.23 65.1 16.13 65.22 16.44 65.55 15.01 67.99"></polygon>
                <polygon id="Path" fill-rule="nonzero" points="14.58 67.78 14.49 67.91 15.3 68.5 17.56 67.14 16.98 69.72 17.81 70.32 17.9 70.19 17.55 69.83 19.43 67.72 19.8 67.89 19.9 67.76 18.99 67.11 18.9 67.24 19.21 67.56 17.5 69.5 17.5 69.51 17.49 69.5 18.16 66.53 18.12 66.5 15.48 68.11 15.47 68.11 15.46 68.11 16.82 65.82 17.24 66.03 17.33 65.9 16.23 65.1 16.13 65.22 16.44 65.55 15.01 67.99"></polygon>
                <path d="M13.04,66.21 L12.3,65.47 L12.54,65.05 L12.44,64.95 L11.97,65.51 L13.51,67.05 L13.62,66.94 L13.35,66.56 L15.34,64.56 L15.72,64.83 L15.83,64.72 L14.13,63.02 L13.42,63.45 L13.54,63.57 L14.04,63.34 L14.97,64.27 L14.06,65.18 L13.44,64.56 L13.64,64.24 L13.54,64.14 C13.38,64.34 13.07,64.65 12.86,64.81 L12.96,64.91 L13.27,64.72 L13.88,65.34 L13.04,66.21 Z" id="Path" fill-rule="nonzero"></path>
                <path d="M13.04,66.21 L12.3,65.47 L12.54,65.05 L12.44,64.95 L11.97,65.51 L13.51,67.05 L13.62,66.94 L13.35,66.56 L15.34,64.56 L15.72,64.83 L15.83,64.72 L14.13,63.02 L13.42,63.45 L13.54,63.57 L14.04,63.34 L14.97,64.27 L14.06,65.18 L13.44,64.56 L13.64,64.24 L13.54,64.14 C13.38,64.34 13.07,64.65 12.86,64.81 L12.96,64.91 L13.27,64.72 L13.88,65.34 L13.04,66.21 Z" id="Path" fill-rule="nonzero"></path>
                <path d="M13.47,62.7 L13.59,62.6 L12.81,61.67 L12.69,61.77 L12.94,62.19 L11.04,63.78 C11.14,63.02 11.48,60.58 11.54,60.11 L11.39,59.93 L9.03,61.92 L8.67,61.62 L8.55,61.72 L9.32,62.64 L9.44,62.54 L9.21,62.13 L11,60.63 L10.52,64.06 L11.08,64.72 L11.2,64.62 L10.96,64.21 L13.12,62.4 L13.47,62.7 Z" id="Path" fill-rule="nonzero"></path>
                <path d="M13.47,62.7 L13.59,62.6 L12.81,61.67 L12.69,61.77 L12.94,62.19 L11.04,63.78 C11.14,63.02 11.48,60.58 11.54,60.11 L11.39,59.93 L9.03,61.92 L8.67,61.62 L8.55,61.72 L9.32,62.64 L9.44,62.54 L9.21,62.13 L11,60.63 L10.52,64.06 L11.08,64.72 L11.2,64.62 L10.96,64.21 L13.12,62.4 L13.47,62.7 Z" id="Path" fill-rule="nonzero"></path>
                <path d="M10.19,58.61 L10.32,58.52 L9.47,57.27 L9.34,57.36 L9.57,57.84 L7.25,59.4 L6.92,58.9 C6.82,58.75 6.73,58.61 6.66,58.48 L7.03,58.09 L6.93,57.94 L6.28,58.43 L8.01,61 L8.74,60.63 L8.65,60.49 L8.12,60.64 C8.03,60.53 7.93,60.4 7.84,60.26 L7.51,59.77 L9.83,58.21 L10.19,58.61 Z" id="Path" fill-rule="nonzero"></path>
                <path d="M10.19,58.61 L10.32,58.52 L9.47,57.27 L9.34,57.36 L9.57,57.84 L7.25,59.4 L6.92,58.9 C6.82,58.75 6.73,58.61 6.66,58.48 L7.03,58.09 L6.93,57.94 L6.28,58.43 L8.01,61 L8.74,60.63 L8.65,60.49 L8.12,60.64 C8.03,60.53 7.93,60.4 7.84,60.26 L7.51,59.77 L9.83,58.21 L10.19,58.61 Z" id="Path" fill-rule="nonzero"></path>
                <path d="M3.98,54.07 C4.39,55.02 5.26,55.34 6.26,54.92 C7.13,54.55 7.58,53.73 7.11,52.62 C6.71,51.68 5.85,51.32 4.97,51.69 C3.97,52.12 3.51,52.96 3.98,54.07 M5.86,54.54 C5.07,54.88 4.43,54.67 4.15,54.02 C3.88,53.39 4.2,52.56 5.11,52.17 C5.82,51.87 6.58,51.85 6.92,52.66 C7.25,53.42 6.82,54.14 5.86,54.54" id="Shape"></path>
                <path d="M3.98,54.07 C4.39,55.02 5.26,55.34 6.26,54.92 C7.13,54.55 7.58,53.73 7.11,52.62 C6.71,51.68 5.85,51.32 4.97,51.69 C3.97,52.12 3.51,52.96 3.98,54.07 M5.86,54.54 C5.07,54.88 4.43,54.67 4.15,54.02 C3.88,53.39 4.2,52.56 5.11,52.17 C5.82,51.87 6.58,51.85 6.92,52.66 C7.25,53.42 6.82,54.14 5.86,54.54" id="Shape" fill-rule="nonzero"></path>
                <path d="M3.98,54.07 C4.39,55.02 5.26,55.34 6.26,54.92 C7.13,54.55 7.58,53.73 7.11,52.62 C6.71,51.68 5.85,51.32 4.97,51.69 C3.97,52.12 3.51,52.96 3.98,54.07 Z M5.86,54.54 C5.07,54.88 4.43,54.67 4.15,54.02 C3.88,53.39 4.2,52.56 5.11,52.17 C5.82,51.87 6.58,51.85 6.92,52.66 C7.25,53.42 6.82,54.14 5.86,54.54 Z" id="Shape" fill-rule="nonzero"></path>
                <path d="M4.37,49.01 L4.33,48.88 C4.1,48.99 3.68,49.12 3.42,49.17 L3.46,49.3 L3.83,49.28 L4.12,50.18 L2.96,50.56 L2.63,49.54 L3.06,49.28 L3.01,49.13 L2.31,49.42 L3.01,51.57 L3.16,51.52 L3.08,51.01 L5.76,50.14 L6,50.6 L6.15,50.55 L5.69,49.14 L5.54,49.19 L5.62,49.7 L4.35,50.11 L4.06,49.2 L4.37,49.01 Z" id="Path" fill-rule="nonzero"></path>
                <path d="M4.37,49.01 L4.33,48.88 C4.1,48.99 3.68,49.12 3.42,49.17 L3.46,49.3 L3.83,49.28 L4.12,50.18 L2.96,50.56 L2.63,49.54 L3.06,49.28 L3.01,49.13 L2.31,49.42 L3.01,51.57 L3.16,51.52 L3.08,51.01 L5.76,50.14 L6,50.6 L6.15,50.55 L5.69,49.14 L5.54,49.19 L5.62,49.7 L4.35,50.11 L4.06,49.2 L4.37,49.01 Z" id="Path" fill-rule="nonzero"></path>
                <polygon id="Path" fill-rule="nonzero" points="3.07 45.33 2.74 43.49 4.08 43.25 4.24 43.69 4.4 43.66 4.16 42.3 4 42.32 4 42.79 1.23 43.28 1.07 42.84 0.91 42.87 1.15 44.24 1.31 44.21 1.31 43.74 2.51 43.53 2.83 45.37 1.63 45.58 1.47 45.14 1.31 45.17 1.55 46.54 1.71 46.51 1.71 46.04 4.49 45.55 4.65 45.99 4.8 45.96 4.56 44.59 4.41 44.62 4.41 45.09"></polygon>
                <polygon id="Path" fill-rule="nonzero" points="3.07 45.33 2.74 43.49 4.08 43.25 4.24 43.69 4.4 43.66 4.16 42.3 4 42.32 4 42.79 1.23 43.28 1.07 42.84 0.91 42.87 1.15 44.24 1.31 44.21 1.31 43.74 2.51 43.53 2.83 45.37 1.63 45.58 1.47 45.14 1.31 45.17 1.55 46.54 1.71 46.51 1.71 46.04 4.49 45.55 4.65 45.99 4.8 45.96 4.56 44.59 4.41 44.62 4.41 45.09"></polygon>
                <path d="M1.1,41.08 L1.03,40.04 L1.48,39.88 L1.47,39.73 L0.75,39.85 L0.9,42.02 L1.06,42.01 L1.11,41.54 L3.92,41.34 L4.03,41.8 L4.19,41.79 L4.02,39.39 L3.21,39.25 L3.22,39.42 L3.75,39.58 L3.84,40.89 L2.55,40.98 L2.49,40.11 L2.85,40 L2.84,39.86 C2.59,39.91 2.14,39.94 1.89,39.93 L1.9,40.07 L2.26,40.13 L2.31,41 L1.1,41.08 Z" id="Path" fill-rule="nonzero"></path>
                <path d="M1.1,41.08 L1.03,40.04 L1.48,39.88 L1.47,39.73 L0.75,39.85 L0.9,42.02 L1.06,42.01 L1.11,41.54 L3.92,41.34 L4.03,41.8 L4.19,41.79 L4.02,39.39 L3.21,39.25 L3.22,39.42 L3.75,39.58 L3.84,40.89 L2.55,40.98 L2.49,40.11 L2.85,40 L2.84,39.86 C2.59,39.91 2.14,39.94 1.89,39.93 L1.9,40.07 L2.26,40.13 L2.31,41 L1.1,41.08 Z" id="Path" fill-rule="nonzero"></path>
                <path d="M2.85,36.52 L3.84,36.13 L3.91,36.59 L4.07,36.59 L4.09,35.22 L3.93,35.22 L3.84,35.62 L0.7,36.87 L0.7,37.11 L3.8,38.4 L3.87,38.8 L4.03,38.8 L4.05,37.62 L3.89,37.62 L3.8,38.08 L2.82,37.71 L2.85,36.52 Z M1.33,37.11 L2.61,36.61 L2.59,37.62 L1.33,37.11 Z" id="Shape"></path>
                <path d="M2.85,36.52 L3.84,36.13 L3.91,36.59 L4.07,36.59 L4.09,35.22 L3.93,35.22 L3.84,35.62 L0.7,36.87 L0.7,37.11 L3.8,38.4 L3.87,38.8 L4.03,38.8 L4.05,37.62 L3.89,37.62 L3.8,38.08 L2.82,37.71 L2.85,36.52 Z M1.33,37.11 L2.61,36.61 L2.59,37.62 L1.33,37.11 Z" id="Shape" fill-rule="nonzero"></path>
                <path d="M2.85,36.52 L3.84,36.13 L3.91,36.59 L4.07,36.59 L4.09,35.22 L3.93,35.22 L3.84,35.62 L0.7,36.87 L0.7,37.11 L3.8,38.4 L3.87,38.8 L4.03,38.8 L4.05,37.62 L3.89,37.62 L3.8,38.08 L2.82,37.71 L2.85,36.52 Z M1.33,37.11 L2.61,36.61 L2.59,37.62 L1.33,37.11 Z" id="Shape" fill-rule="nonzero"></path>
                <polygon id="Path" fill-rule="nonzero" points="4.21 34.72 4.62 32.4 3.74 32.03 3.71 32.19 4.29 32.57 4.09 33.75 1.36 33.27 1.36 32.8 1.2 32.78 0.96 34.14 1.12 34.17 1.28 33.73 4.05 34.22 4.05 34.69"></polygon>
                <polygon id="Path" fill-rule="nonzero" points="4.21 34.72 4.62 32.4 3.74 32.03 3.71 32.19 4.29 32.57 4.09 33.75 1.36 33.27 1.36 32.8 1.2 32.78 0.96 34.14 1.12 34.17 1.28 33.73 4.05 34.22 4.05 34.69"></polygon>
                <path d="M4.65,31.38 L4.81,31.42 L5.18,29.95 L5.02,29.91 L4.81,30.4 L2.1,29.73 L2.24,29.15 C2.28,28.98 2.33,28.82 2.38,28.67 L2.92,28.69 L2.96,28.52 L2.16,28.36 L1.41,31.37 L2.17,31.66 L2.21,31.5 L1.75,31.2 C1.78,31.06 1.8,30.9 1.85,30.74 L1.99,30.17 L4.7,30.85 L4.65,31.38 Z" id="Path" fill-rule="nonzero"></path>
                <path d="M4.65,31.38 L4.81,31.42 L5.18,29.95 L5.02,29.91 L4.81,30.4 L2.1,29.73 L2.24,29.15 C2.28,28.98 2.33,28.82 2.38,28.67 L2.92,28.69 L2.96,28.52 L2.16,28.36 L1.41,31.37 L2.17,31.66 L2.21,31.5 L1.75,31.2 C1.78,31.06 1.8,30.9 1.85,30.74 L1.99,30.17 L4.7,30.85 L4.65,31.38 Z" id="Path" fill-rule="nonzero"></path>
                <polygon id="Path" fill-rule="nonzero" points="4.27 27.33 4.88 25.56 6.17 26.01 6.09 26.47 6.25 26.52 6.7 25.21 6.54 25.16 6.32 25.57 3.66 24.65 3.73 24.19 3.58 24.13 3.13 25.45 3.28 25.5 3.5 25.09 4.66 25.49 4.05 27.26 2.89 26.86 2.97 26.39 2.82 26.34 2.36 27.66 2.52 27.71 2.74 27.3 5.41 28.21 5.33 28.68 5.48 28.73 5.94 27.42 5.79 27.36 5.56 27.78"></polygon>
                <polygon id="Path" fill-rule="nonzero" points="4.27 27.33 4.88 25.56 6.17 26.01 6.09 26.47 6.25 26.52 6.7 25.21 6.54 25.16 6.32 25.57 3.66 24.65 3.73 24.19 3.58 24.13 3.13 25.45 3.28 25.5 3.5 25.09 4.66 25.49 4.05 27.26 2.89 26.86 2.97 26.39 2.82 26.34 2.36 27.66 2.52 27.71 2.74 27.3 5.41 28.21 5.33 28.68 5.48 28.73 5.94 27.42 5.79 27.36 5.56 27.78"></polygon>
                <path d="M6.96,22.35 C6.67,22.18 6.55,21.86 6.56,21.54 C7.07,21.26 7.59,20.99 8.09,20.73 C8.23,21.08 8.28,21.46 8.14,21.82 C7.95,22.32 7.46,22.64 6.96,22.35 M6.21,21.23 C6,21.25 5.86,21.27 5.67,21.16 C5.43,21.02 5.33,20.79 5.48,20.54 C5.61,20.32 5.88,20.36 6.08,20.47 C6.33,20.62 6.44,20.83 6.46,21.17 L6.21,21.23 Z M6.43,21.57 C6.39,21.93 6.37,22.51 6.89,22.81 C7.37,23.09 7.87,22.87 8.24,22.22 C8.51,21.74 8.4,21.16 8.21,20.68 C8.51,20.58 8.84,20.58 9.15,20.59 L9.46,19.89 L9.34,19.82 C9.09,20.4 8.62,20.02 8.01,20.32 C7.89,20.16 7.75,20 7.55,19.89 C7.07,19.61 6.7,19.78 6.68,19.82 C6.63,19.91 6.58,20.14 6.54,20.25 L6.62,20.29 C6.7,20.1 6.78,20 6.99,19.97 C7.31,19.92 7.67,20.09 7.89,20.4 C7.72,20.48 7.56,20.56 7.4,20.65 L6.57,21.1 C6.59,20.75 6.54,20.41 6.21,20.22 C5.93,20.06 5.55,20.16 5.39,20.43 C5.14,20.86 5.3,21.28 5.67,21.49 C5.9,21.63 6.18,21.66 6.43,21.57" id="Shape"></path>
                <path d="M6.96,22.35 C6.67,22.18 6.55,21.86 6.56,21.54 C7.07,21.26 7.59,20.99 8.09,20.73 C8.23,21.08 8.28,21.46 8.14,21.82 C7.95,22.32 7.46,22.64 6.96,22.35 M6.21,21.23 C6,21.25 5.86,21.27 5.67,21.16 C5.43,21.02 5.33,20.79 5.48,20.54 C5.61,20.32 5.88,20.36 6.08,20.47 C6.33,20.62 6.44,20.83 6.46,21.17 L6.21,21.23 Z M6.43,21.57 C6.39,21.93 6.37,22.51 6.89,22.81 C7.37,23.09 7.87,22.87 8.24,22.22 C8.51,21.74 8.4,21.16 8.21,20.68 C8.51,20.58 8.84,20.58 9.15,20.59 L9.46,19.89 L9.34,19.82 C9.09,20.4 8.62,20.02 8.01,20.32 C7.89,20.16 7.75,20 7.55,19.89 C7.07,19.61 6.7,19.78 6.68,19.82 C6.63,19.91 6.58,20.14 6.54,20.25 L6.62,20.29 C6.7,20.1 6.78,20 6.99,19.97 C7.31,19.92 7.67,20.09 7.89,20.4 C7.72,20.48 7.56,20.56 7.4,20.65 L6.57,21.1 C6.59,20.75 6.54,20.41 6.21,20.22 C5.93,20.06 5.55,20.16 5.39,20.43 C5.14,20.86 5.3,21.28 5.67,21.49 C5.9,21.63 6.18,21.66 6.43,21.57" id="Shape" fill-rule="nonzero"></path>
                <path d="M6.96,22.35 C6.67,22.18 6.55,21.86 6.56,21.54 C7.07,21.26 7.59,20.99 8.09,20.73 C8.23,21.08 8.28,21.46 8.14,21.82 C7.95,22.32 7.46,22.64 6.96,22.35 Z M6.21,21.23 C6,21.25 5.86,21.27 5.67,21.16 C5.43,21.02 5.33,20.79 5.48,20.54 C5.61,20.32 5.88,20.36 6.08,20.47 C6.33,20.62 6.44,20.83 6.46,21.17 L6.21,21.23 Z M6.43,21.57 C6.39,21.93 6.37,22.51 6.89,22.81 C7.37,23.09 7.87,22.87 8.24,22.22 C8.51,21.74 8.4,21.16 8.21,20.68 C8.51,20.58 8.84,20.58 9.15,20.59 L9.46,19.89 L9.34,19.82 C9.09,20.4 8.62,20.02 8.01,20.32 C7.89,20.16 7.75,20 7.55,19.89 C7.07,19.61 6.7,19.78 6.68,19.82 C6.63,19.91 6.58,20.14 6.54,20.25 L6.62,20.29 C6.7,20.1 6.78,20 6.99,19.97 C7.31,19.92 7.67,20.09 7.89,20.4 C7.72,20.48 7.56,20.56 7.4,20.65 L6.57,21.1 C6.59,20.75 6.54,20.41 6.21,20.22 C5.93,20.06 5.55,20.16 5.39,20.43 C5.14,20.86 5.3,21.28 5.67,21.49 C5.9,21.63 6.18,21.66 6.43,21.57 Z" id="Shape" fill-rule="nonzero"></path>
                <polygon id="Path" fill-rule="nonzero" points="9.84 16.7 10.99 15.23 12.06 16.07 11.84 16.48 11.97 16.58 12.82 15.48 12.69 15.38 12.35 15.7 10.13 13.97 10.35 13.55 10.22 13.45 9.37 14.55 9.49 14.65 9.84 14.33 10.8 15.08 9.65 16.56 8.69 15.81 8.91 15.39 8.78 15.29 7.93 16.39 8.06 16.49 8.4 16.17 10.62 17.9 10.4 18.32 10.53 18.42 11.38 17.32 11.26 17.22 10.91 17.54"></polygon>
                <polygon id="Path" fill-rule="nonzero" points="9.84 16.7 10.99 15.23 12.06 16.07 11.84 16.48 11.97 16.58 12.82 15.48 12.69 15.38 12.35 15.7 10.13 13.97 10.35 13.55 10.22 13.45 9.37 14.55 9.49 14.65 9.84 14.33 10.8 15.08 9.65 16.56 8.69 15.81 8.91 15.39 8.78 15.29 7.93 16.39 8.06 16.49 8.4 16.17 10.62 17.9 10.4 18.32 10.53 18.42 11.38 17.32 11.26 17.22 10.91 17.54"></polygon>
                <path d="M13.62,10.32 L13.5,10.21 L12.58,11.13 L12.7,11.24 L13.08,10.97 L14.23,12.12 C14.41,12.3 14.71,12.6 14.73,12.88 C14.77,13.24 14.56,13.57 14.39,13.74 C13.88,14.25 13.35,14.12 12.87,13.62 L11.66,12.4 L11.93,12.02 L11.82,11.9 L10.84,12.88 L10.95,12.99 L11.33,12.72 L12.67,14.06 C13.17,14.59 13.85,14.65 14.55,13.95 C15.3,13.2 15.12,12.48 14.47,11.83 L13.35,10.71 L13.62,10.32 Z" id="Path" fill-rule="nonzero"></path>
                <path d="M13.62,10.32 L13.5,10.21 L12.58,11.13 L12.7,11.24 L13.08,10.97 L14.23,12.12 C14.41,12.3 14.71,12.6 14.73,12.88 C14.77,13.24 14.56,13.57 14.39,13.74 C13.88,14.25 13.35,14.12 12.87,13.62 L11.66,12.4 L11.93,12.02 L11.82,11.9 L10.84,12.88 L10.95,12.99 L11.33,12.72 L12.67,14.06 C13.17,14.59 13.85,14.65 14.55,13.95 C15.3,13.2 15.12,12.48 14.47,11.83 L13.35,10.71 L13.62,10.32 Z" id="Path" fill-rule="nonzero"></path>
                <polygon id="Path" fill-rule="nonzero" points="17.72 7.17 17.63 7.04 16.82 7.65 17.46 10.2 15.17 8.89 14.35 9.51 14.44 9.64 14.89 9.4 16.36 11.82 16.09 12.13 16.19 12.26 17.08 11.59 16.98 11.46 16.58 11.66 15.22 9.46 15.22 9.45 15.23 9.45 17.87 10.96 17.91 10.93 17.15 7.93 17.14 7.92 17.15 7.91 18.94 9.88 18.62 10.22 18.72 10.35 19.81 9.53 19.71 9.4 19.31 9.6 17.39 7.52"></polygon>
                <polygon id="Path" fill-rule="nonzero" points="17.72 7.17 17.63 7.04 16.82 7.65 17.46 10.2 15.17 8.89 14.35 9.51 14.44 9.64 14.89 9.4 16.36 11.82 16.09 12.13 16.19 12.26 17.08 11.59 16.98 11.46 16.58 11.66 15.22 9.46 15.22 9.45 15.23 9.45 17.87 10.96 17.91 10.93 17.15 7.93 17.14 7.92 17.15 7.91 18.94 9.88 18.62 10.22 18.72 10.35 19.81 9.53 19.71 9.4 19.31 9.6 17.39 7.52"></polygon>
                <path d="M21.57,7.15 L22.4,7.81 L22.03,8.1 L22.11,8.24 L23.3,7.58 L23.22,7.44 L22.83,7.56 L20.18,5.45 L19.97,5.57 L20.41,8.9 L20.1,9.17 L20.18,9.31 L21.21,8.74 L21.13,8.6 L20.69,8.75 L20.52,7.72 L21.57,7.15 Z M20.29,6.14 L21.37,7 L20.49,7.49 L20.29,6.14 Z" id="Shape"></path>
                <path d="M21.57,7.15 L22.4,7.81 L22.03,8.1 L22.11,8.24 L23.3,7.58 L23.22,7.44 L22.83,7.56 L20.18,5.45 L19.97,5.57 L20.41,8.9 L20.1,9.17 L20.18,9.31 L21.21,8.74 L21.13,8.6 L20.69,8.75 L20.52,7.72 L21.57,7.15 Z M20.29,6.14 L21.37,7 L20.49,7.49 L20.29,6.14 Z" id="Shape" fill-rule="nonzero"></path>
                <path d="M21.57,7.15 L22.4,7.81 L22.03,8.1 L22.11,8.24 L23.3,7.58 L23.22,7.44 L22.83,7.56 L20.18,5.45 L19.97,5.57 L20.41,8.9 L20.1,9.17 L20.18,9.31 L21.21,8.74 L21.13,8.6 L20.69,8.75 L20.52,7.72 L21.57,7.15 Z M20.29,6.14 L21.37,7 L20.49,7.49 L20.29,6.14 Z" id="Shape" fill-rule="nonzero"></path>
                <path d="M23.64,7.28 L23.7,7.43 L24.82,6.95 L24.76,6.8 L24.28,6.92 L23.31,4.64 C24.01,4.96 26.24,5.99 26.67,6.2 L26.9,6.1 L25.69,3.26 L26.09,3 L26.03,2.85 L24.93,3.32 L24.99,3.47 L25.45,3.36 L26.36,5.51 L23.22,4.05 L22.42,4.39 L22.48,4.54 L22.94,4.43 L24.04,7.03 L23.64,7.28 Z" id="Path" fill-rule="nonzero"></path>
                <path d="M23.64,7.28 L23.7,7.43 L24.82,6.95 L24.76,6.8 L24.28,6.92 L23.31,4.64 C24.01,4.96 26.24,5.99 26.67,6.2 L26.9,6.1 L25.69,3.26 L26.09,3 L26.03,2.85 L24.93,3.32 L24.99,3.47 L25.45,3.36 L26.36,5.51 L23.22,4.05 L22.42,4.39 L22.48,4.54 L22.94,4.43 L24.04,7.03 L23.64,7.28 Z" id="Path" fill-rule="nonzero"></path>
                <path d="M30.99,1.59 C30.76,1.61 30.52,1.58 30.29,1.63 C29.64,1.77 29.34,2.24 29.44,2.73 C29.69,3.9 31.18,3.32 31.35,4.11 C31.44,4.52 31.19,4.77 30.8,4.85 C30.6,4.89 30.22,4.87 30.08,4.7 C29.99,4.58 29.89,4.4 29.8,4.16 L29.65,4.23 L29.87,4.99 C30.14,5.11 30.55,5.1 30.87,5.03 C31.55,4.89 31.85,4.39 31.72,3.81 C31.52,2.88 30.02,3.42 29.84,2.54 C29.76,2.19 29.96,1.92 30.31,1.85 C30.7,1.77 30.92,2.03 31.06,2.35 L31.21,2.29 L30.99,1.59 Z" id="Path" fill-rule="nonzero"></path>
                <path d="M30.99,1.59 C30.76,1.61 30.52,1.58 30.29,1.63 C29.64,1.77 29.34,2.24 29.44,2.73 C29.69,3.9 31.18,3.32 31.35,4.11 C31.44,4.52 31.19,4.77 30.8,4.85 C30.6,4.89 30.22,4.87 30.08,4.7 C29.99,4.58 29.89,4.4 29.8,4.16 L29.65,4.23 L29.87,4.99 C30.14,5.11 30.55,5.1 30.87,5.03 C31.55,4.89 31.85,4.39 31.72,3.81 C31.52,2.88 30.02,3.42 29.84,2.54 C29.76,2.19 29.96,1.92 30.31,1.85 C30.7,1.77 30.92,2.03 31.06,2.35 L31.21,2.29 L30.99,1.59 Z" id="Path" fill-rule="nonzero"></path>
                <path d="M33.07,1.42 L34.11,1.29 L34.3,1.74 L34.45,1.72 L34.29,1.01 L32.13,1.27 L32.15,1.43 L32.62,1.45 L32.96,4.25 L32.5,4.39 L32.52,4.55 L34.9,4.26 L34.99,3.44 L34.82,3.46 L34.7,3.99 L33.4,4.15 L33.24,2.87 L34.11,2.76 L34.24,3.11 L34.38,3.09 C34.32,2.84 34.27,2.4 34.26,2.14 L34.12,2.16 L34.07,2.52 L33.21,2.62 L33.07,1.42 Z" id="Path" fill-rule="nonzero"></path>
                <path d="M33.07,1.42 L34.11,1.29 L34.3,1.74 L34.45,1.72 L34.29,1.01 L32.13,1.27 L32.15,1.43 L32.62,1.45 L32.96,4.25 L32.5,4.39 L32.52,4.55 L34.9,4.26 L34.99,3.44 L34.82,3.46 L34.7,3.99 L33.4,4.15 L33.24,2.87 L34.11,2.76 L34.24,3.11 L34.38,3.09 C34.32,2.84 34.27,2.4 34.26,2.14 L34.12,2.16 L34.07,2.52 L33.21,2.62 L33.07,1.42 Z" id="Path" fill-rule="nonzero"></path>
                <path d="M36.52,1.01 C36.6,0.99 36.68,0.98 36.78,0.98 C37.31,0.97 37.59,1.26 37.6,1.79 C37.61,2.45 37.33,2.49 36.75,2.5 C36.68,2.5 36.6,2.5 36.55,2.5 L36.52,1.01 Z M35.62,3.96 L35.62,4.12 L37.03,4.1 L37.03,3.94 L36.57,3.87 L36.55,2.7 C36.73,2.7 36.9,2.69 37.05,2.67 C37.36,3.1 37.7,3.55 38.07,3.97 C38.1,4 38.28,4.04 38.39,4.07 L38.75,4.15 L38.79,4.01 C38.49,3.89 38.27,3.59 38.09,3.36 L37.47,2.56 C37.79,2.33 38.06,1.98 38.05,1.58 C38.04,1.02 37.59,0.78 37.11,0.79 L35.56,0.82 L35.56,0.98 L36.05,1.05 L36.1,3.87 L35.62,3.96 Z" id="Shape"></path>
                <path d="M36.52,1.01 C36.6,0.99 36.68,0.98 36.78,0.98 C37.31,0.97 37.59,1.26 37.6,1.79 C37.61,2.45 37.33,2.49 36.75,2.5 C36.68,2.5 36.6,2.5 36.55,2.5 L36.52,1.01 Z M35.62,3.96 L35.62,4.12 L37.03,4.1 L37.03,3.94 L36.57,3.87 L36.55,2.7 C36.73,2.7 36.9,2.69 37.05,2.67 C37.36,3.1 37.7,3.55 38.07,3.97 C38.1,4 38.28,4.04 38.39,4.07 L38.75,4.15 L38.79,4.01 C38.49,3.89 38.27,3.59 38.09,3.36 L37.47,2.56 C37.79,2.33 38.06,1.98 38.05,1.58 C38.04,1.02 37.59,0.78 37.11,0.79 L35.56,0.82 L35.56,0.98 L36.05,1.05 L36.1,3.87 L35.62,3.96 Z" id="Shape" fill-rule="nonzero"></path>
                <path d="M36.52,1.01 C36.6,0.99 36.68,0.98 36.78,0.98 C37.31,0.97 37.59,1.26 37.6,1.79 C37.61,2.45 37.33,2.49 36.75,2.5 C36.68,2.5 36.6,2.5 36.55,2.5 L36.52,1.01 Z M35.62,3.96 L35.62,4.12 L37.03,4.1 L37.03,3.94 L36.57,3.87 L36.55,2.7 C36.73,2.7 36.9,2.69 37.05,2.67 C37.36,3.1 37.7,3.55 38.07,3.97 C38.1,4 38.28,4.04 38.39,4.07 L38.75,4.15 L38.79,4.01 C38.49,3.89 38.27,3.59 38.09,3.36 L37.47,2.56 C37.79,2.33 38.06,1.98 38.05,1.58 C38.04,1.02 37.59,0.78 37.11,0.79 L35.56,0.82 L35.56,0.98 L36.05,1.05 L36.1,3.87 L35.62,3.96 Z" id="Shape" fill-rule="nonzero"></path>
                <path d="M40.24,1.01 L40.71,0.96 L40.72,0.8 L39.33,0.7 L39.32,0.86 L39.78,0.97 L40.75,4.14 L40.94,4.15 C41.3,3.33 41.92,1.94 42.32,1.14 L42.65,1.08 L42.66,0.92 L41.57,0.84 L41.56,1 L42.02,1.11 L40.99,3.4 L40.24,1.01 Z" id="Path" fill-rule="nonzero"></path>
                <path d="M40.24,1.01 L40.71,0.96 L40.72,0.8 L39.33,0.7 L39.32,0.86 L39.78,0.97 L40.75,4.14 L40.94,4.15 C41.3,3.33 41.92,1.94 42.32,1.14 L42.65,1.08 L42.66,0.92 L41.57,0.84 L41.56,1 L42.02,1.11 L40.99,3.4 L40.24,1.01 Z" id="Path" fill-rule="nonzero"></path>
                <polygon id="Path" fill-rule="nonzero" points="44.48 1.35 44.5 1.19 43.13 1.02 43.1 1.18 43.56 1.32 43.21 4.12 42.74 4.14 42.72 4.3 44.1 4.47 44.12 4.31 43.67 4.17 44.01 1.38"></polygon>
                <polygon id="Path" fill-rule="nonzero" points="44.48 1.35 44.5 1.19 43.13 1.02 43.1 1.18 43.56 1.32 43.21 4.12 42.74 4.14 42.72 4.3 44.1 4.47 44.12 4.31 43.67 4.17 44.01 1.38"></polygon>
                <path d="M48.33,2.07 C47.98,1.89 47.44,1.7 47.11,1.63 C45.94,1.38 45.18,1.86 44.96,2.9 C44.7,4.13 45.41,4.79 46.46,5.01 C46.76,5.07 47.09,5.1 47.44,5.09 L47.91,4.54 L47.81,4.42 C47.47,4.79 47.04,4.92 46.56,4.82 C45.7,4.64 45.25,3.75 45.45,2.8 C45.63,1.94 46.21,1.67 47.04,1.84 C47.92,2.03 48.08,2.45 48.04,2.88 L48.2,2.91 L48.33,2.07 Z" id="Path" fill-rule="nonzero"></path>
                <path d="M48.33,2.07 C47.98,1.89 47.44,1.7 47.11,1.63 C45.94,1.38 45.18,1.86 44.96,2.9 C44.7,4.13 45.41,4.79 46.46,5.01 C46.76,5.07 47.09,5.1 47.44,5.09 L47.91,4.54 L47.81,4.42 C47.47,4.79 47.04,4.92 46.56,4.82 C45.7,4.64 45.25,3.75 45.45,2.8 C45.63,1.94 46.21,1.67 47.04,1.84 C47.92,2.03 48.08,2.45 48.04,2.88 L48.2,2.91 L48.33,2.07 Z" id="Path" fill-rule="nonzero"></path>
                <path d="M50.22,2.86 L51.21,3.2 L51.18,3.68 L51.32,3.73 L51.49,3.02 L49.43,2.31 L49.38,2.46 L49.79,2.69 L48.87,5.35 L48.41,5.27 L48.36,5.42 L50.63,6.2 L51.08,5.5 L50.92,5.44 L50.57,5.86 L49.33,5.43 L49.75,4.21 L50.58,4.49 L50.54,4.9 L50.67,4.95 C50.73,4.7 50.87,4.28 50.98,4.05 L50.85,4 L50.65,4.31 L49.83,4.03 L50.22,2.86 Z" id="Path" fill-rule="nonzero"></path>
                <path d="M50.22,2.86 L51.21,3.2 L51.18,3.68 L51.32,3.73 L51.49,3.02 L49.43,2.31 L49.38,2.46 L49.79,2.69 L48.87,5.35 L48.41,5.27 L48.36,5.42 L50.63,6.2 L51.08,5.5 L50.92,5.44 L50.57,5.86 L49.33,5.43 L49.75,4.21 L50.58,4.49 L50.54,4.9 L50.67,4.95 C50.73,4.7 50.87,4.28 50.98,4.05 L50.85,4 L50.65,4.31 L49.83,4.03 L50.22,2.86 Z" id="Path" fill-rule="nonzero"></path>
                <path d="M54.41,4.23 C54.21,4.12 54.03,3.95 53.82,3.85 C53.22,3.58 52.69,3.79 52.49,4.24 C52,5.34 53.55,5.74 53.22,6.48 C53.05,6.86 52.7,6.92 52.34,6.75 C52.15,6.67 51.86,6.42 51.84,6.2 C51.84,6.05 51.87,5.84 51.93,5.6 L51.77,5.57 L51.5,6.32 C51.65,6.57 51.99,6.81 52.29,6.94 C52.92,7.22 53.45,7 53.7,6.45 C54.09,5.58 52.56,5.14 52.92,4.31 C53.07,3.98 53.38,3.89 53.7,4.03 C54.07,4.19 54.09,4.53 54.01,4.88 L54.16,4.92 L54.41,4.23 Z" id="Path" fill-rule="nonzero"></path>
                <path d="M54.41,4.23 C54.21,4.12 54.03,3.95 53.82,3.85 C53.22,3.58 52.69,3.79 52.49,4.24 C52,5.34 53.55,5.74 53.22,6.48 C53.05,6.86 52.7,6.92 52.34,6.75 C52.15,6.67 51.86,6.42 51.84,6.2 C51.84,6.05 51.87,5.84 51.93,5.6 L51.77,5.57 L51.5,6.32 C51.65,6.57 51.99,6.81 52.29,6.94 C52.92,7.22 53.45,7 53.7,6.45 C54.09,5.58 52.56,5.14 52.92,4.31 C53.07,3.98 53.38,3.89 53.7,4.03 C54.07,4.19 54.09,4.53 54.01,4.88 L54.16,4.92 L54.41,4.23 Z" id="Path" fill-rule="nonzero"></path>
                <path d="M55.95,6.9 C56.05,6.69 55.97,6.44 55.77,6.34 C55.56,6.23 55.31,6.31 55.21,6.52 C55.11,6.73 55.19,6.98 55.39,7.08 C55.59,7.19 55.84,7.1 55.95,6.9" id="Path" fill-rule="nonzero"></path>
                <path d="M55.95,6.9 C56.05,6.69 55.97,6.44 55.77,6.34 C55.56,6.23 55.31,6.31 55.21,6.52 C55.11,6.73 55.19,6.98 55.39,7.08 C55.59,7.19 55.84,7.1 55.95,6.9 Z" id="Path" fill-rule="nonzero"></path>
                <path d="M61.12,8.27 L61.21,8.14 L60.12,7.43 L60.03,7.57 L60.37,7.89 L59.49,9.25 C59.35,9.46 59.12,9.81 58.85,9.9 C58.51,10.01 58.14,9.88 57.94,9.75 C57.33,9.35 57.35,8.81 57.75,8.23 L58.68,6.79 L59.11,6.98 L59.2,6.85 L58.04,6.09 L57.95,6.22 L58.3,6.54 L57.27,8.13 C56.86,8.73 56.94,9.41 57.77,9.95 C58.66,10.53 59.33,10.2 59.83,9.43 L60.69,8.1 L61.12,8.27 Z" id="Path" fill-rule="nonzero"></path>
                <path d="M61.12,8.27 L61.21,8.14 L60.12,7.43 L60.03,7.57 L60.37,7.89 L59.49,9.25 C59.35,9.46 59.12,9.81 58.85,9.9 C58.51,10.01 58.14,9.88 57.94,9.75 C57.33,9.35 57.35,8.81 57.75,8.23 L58.68,6.79 L59.11,6.98 L59.2,6.85 L58.04,6.09 L57.95,6.22 L58.3,6.54 L57.27,8.13 C56.86,8.73 56.94,9.41 57.77,9.95 C58.66,10.53 59.33,10.2 59.83,9.43 L60.69,8.1 L61.12,8.27 Z" id="Path" fill-rule="nonzero"></path>
                <path d="M63.36,9.99 C63.2,9.83 63.08,9.62 62.9,9.47 C62.39,9.04 61.83,9.09 61.51,9.48 C60.74,10.4 62.12,11.22 61.6,11.83 C61.33,12.15 60.98,12.11 60.68,11.85 C60.53,11.72 60.31,11.4 60.36,11.18 C60.39,11.04 60.48,10.84 60.61,10.63 L60.47,10.56 L60,11.2 C60.07,11.48 60.34,11.81 60.58,12.01 C61.11,12.46 61.68,12.39 62.07,11.93 C62.68,11.2 61.33,10.35 61.91,9.66 C62.14,9.39 62.47,9.38 62.74,9.6 C63.05,9.86 62.98,10.19 62.81,10.5 L62.94,10.58 L63.36,9.99 Z" id="Path" fill-rule="nonzero"></path>
                <path d="M63.36,9.99 C63.2,9.83 63.08,9.62 62.9,9.47 C62.39,9.04 61.83,9.09 61.51,9.48 C60.74,10.4 62.12,11.22 61.6,11.83 C61.33,12.15 60.98,12.11 60.68,11.85 C60.53,11.72 60.31,11.4 60.36,11.18 C60.39,11.04 60.48,10.84 60.61,10.63 L60.47,10.56 L60,11.2 C60.07,11.48 60.34,11.81 60.58,12.01 C61.11,12.46 61.68,12.39 62.07,11.93 C62.68,11.2 61.33,10.35 61.91,9.66 C62.14,9.39 62.47,9.38 62.74,9.6 C63.05,9.86 62.98,10.19 62.81,10.5 L62.94,10.58 L63.36,9.99 Z" id="Path" fill-rule="nonzero"></path>
                <path d="M64.33,13.72 L63.92,14.7 L63.54,14.43 L63.42,14.55 L64.39,15.52 L64.5,15.4 L64.27,15.06 L65.56,11.93 L65.39,11.76 L62.31,13.1 L61.97,12.87 L61.86,12.98 L62.7,13.82 L62.81,13.7 L62.54,13.32 L63.48,12.87 L64.33,13.72 Z M64.96,12.21 L64.43,13.48 L63.72,12.77 L64.96,12.21 Z" id="Shape"></path>
                <path d="M64.33,13.72 L63.92,14.7 L63.54,14.43 L63.42,14.55 L64.39,15.52 L64.5,15.4 L64.27,15.06 L65.56,11.93 L65.39,11.76 L62.31,13.1 L61.97,12.87 L61.86,12.98 L62.7,13.82 L62.81,13.7 L62.54,13.32 L63.48,12.87 L64.33,13.72 Z M64.96,12.21 L64.43,13.48 L63.72,12.77 L64.96,12.21 Z" id="Shape" fill-rule="nonzero"></path>
                <path d="M64.33,13.72 L63.92,14.7 L63.54,14.43 L63.42,14.55 L64.39,15.52 L64.5,15.4 L64.27,15.06 L65.56,11.93 L65.39,11.76 L62.31,13.1 L61.97,12.87 L61.86,12.98 L62.7,13.82 L62.81,13.7 L62.54,13.32 L63.48,12.87 L64.33,13.72 Z M64.96,12.21 L64.43,13.48 L63.72,12.77 L64.96,12.21 Z" id="Shape" fill-rule="nonzero"></path>
                <path d="M70.56,13.67 C71.07,16.36 68.98,18.41 66.95,20 L59.92,25.42 C59.92,25.42 46.86,35.45 46.27,36.16 C45.98,36.51 46.27,36.16 46.27,36.16 C44.27,38.22 43.9,44.06 42.46,47.91 C41.16,50.66 39.67,51.07 34.43,50.97 L28.3,50.97 C27.63,50.96 27.31,51.06 26.93,51.87 L26.29,51.83 C26.17,50.11 26.58,48.6 28.12,47.74 C28.91,47.4 29.77,47.49 30.64,47.49 C33.23,47.49 35.1,47.49 37.79,47.49 C38.56,47.43 39.1,47.2 39.35,46.6 C40.62,41.68 40.52,36.03 45.07,32.64 L59.42,21.5 C62.67,18.65 67.67,16.16 68.66,11.66 C69.74,11.88 70.23,12.7 70.56,13.67" id="Path" fill-rule="nonzero"></path>
                <path d="M70.56,13.67 C71.07,16.36 68.98,18.41 66.95,20 L59.92,25.42 C59.92,25.42 46.86,35.45 46.27,36.16 C45.98,36.51 46.27,36.16 46.27,36.16 C44.27,38.22 43.9,44.06 42.46,47.91 C41.16,50.66 39.67,51.07 34.43,50.97 L28.3,50.97 C27.63,50.96 27.31,51.06 26.93,51.87 L26.29,51.83 C26.17,50.11 26.58,48.6 28.12,47.74 C28.91,47.4 29.77,47.49 30.64,47.49 C33.23,47.49 35.1,47.49 37.79,47.49 C38.56,47.43 39.1,47.2 39.35,46.6 C40.62,41.68 40.52,36.03 45.07,32.64 L59.42,21.5 C62.67,18.65 67.67,16.16 68.66,11.66 C69.74,11.88 70.23,12.7 70.56,13.67 Z" id="Path" fill-rule="nonzero"></path>
                <path d="M75.26,19.17 C75.84,21.25 73.39,23.05 71.75,24.49 L63.02,31.42 L52.38,39.85 C50.58,41.46 50.6,44.15 50.17,46.48 C50.14,47.3 51.21,47.86 50.68,48.77 C49.75,50.34 48.68,51 49.23,51.73 C49.65,52.3 52.08,51.71 51.04,53.56 C50.86,54.54 52.93,53.65 51.86,54.45 C51.52,55.07 51.93,55.35 52.38,55.39 C52.99,55.64 51.95,56.75 52.5,57.52 C54.19,59.62 60.15,56.64 60.53,60.33 C60.75,64.41 52.26,64.03 54.4,69.29 C54.88,70.35 55.97,70.76 57.02,70.87 C57.47,70.89 57.92,70.83 58.7,70.7 L58.89,71.11 C58.89,71.11 58.63,71.37 57.88,71.86 C56.35,72.81 53.55,73.79 51.8,72.64 C50.64,71.78 50.11,70.69 50.08,69.36 C50.21,65.91 54.28,65.5 55.9,62.84 C56.2,62.38 56.13,61.57 55.8,61.13 C54.54,59.34 52.13,59.77 50.08,59.82 C49.19,59.79 48.49,59.4 48.37,58.51 C48.27,57.61 48.77,57.13 48.45,56.73 C48.14,56.4 47.6,56.43 47.46,56 C47.39,55.78 47.45,55.64 47.73,55.35 C48.53,54.84 46.2,55.23 47.02,54.02 C47.25,53.84 47.32,53.59 47.26,53.29 C46.78,52.39 45.34,53.29 45.01,52.24 C44.76,50.97 48.35,49.22 46.43,47.19 C46.44,47.13 46.39,47.02 46.38,46.95 C46.36,45.85 47.3,41.54 48.36,39.14 C48.97,37.86 50.46,36.89 51.57,35.93 L69.24,22.08 C71.05,20.62 72.96,19.21 73.26,16.86 C74.4,17.23 75.03,18.21 75.26,19.17" id="Path" fill-rule="nonzero"></path>
                <path d="M75.26,19.17 C75.84,21.25 73.39,23.05 71.75,24.49 L63.02,31.42 L52.38,39.85 C50.58,41.46 50.6,44.15 50.17,46.48 C50.14,47.3 51.21,47.86 50.68,48.77 C49.75,50.34 48.68,51 49.23,51.73 C49.65,52.3 52.08,51.71 51.04,53.56 C50.86,54.54 52.93,53.65 51.86,54.45 C51.52,55.07 51.93,55.35 52.38,55.39 C52.99,55.64 51.95,56.75 52.5,57.52 C54.19,59.62 60.15,56.64 60.53,60.33 C60.75,64.41 52.26,64.03 54.4,69.29 C54.88,70.35 55.97,70.76 57.02,70.87 C57.47,70.89 57.92,70.83 58.7,70.7 L58.89,71.11 C58.89,71.11 58.63,71.37 57.88,71.86 C56.35,72.81 53.55,73.79 51.8,72.64 C50.64,71.78 50.11,70.69 50.08,69.36 C50.21,65.91 54.28,65.5 55.9,62.84 C56.2,62.38 56.13,61.57 55.8,61.13 C54.54,59.34 52.13,59.77 50.08,59.82 C49.19,59.79 48.49,59.4 48.37,58.51 C48.27,57.61 48.77,57.13 48.45,56.73 C48.14,56.4 47.6,56.43 47.46,56 C47.39,55.78 47.45,55.64 47.73,55.35 C48.53,54.84 46.2,55.23 47.02,54.02 C47.25,53.84 47.32,53.59 47.26,53.29 C46.78,52.39 45.34,53.29 45.01,52.24 C44.76,50.97 48.35,49.22 46.43,47.19 C46.44,47.13 46.39,47.02 46.38,46.95 C46.36,45.85 47.3,41.54 48.36,39.14 C48.97,37.86 50.46,36.89 51.57,35.93 L69.24,22.08 C71.05,20.62 72.96,19.21 73.26,16.86 C74.4,17.23 75.03,18.21 75.26,19.17 Z" id="Path" fill-rule="nonzero"></path>
                <path d="M72.34,28.71 C72.71,29.98 72.62,31.81 71.51,32.83 L69.75,34.33 L58.09,43.46 C56.91,44.65 56.88,46.49 57.21,48.07 C57.83,49.07 56.11,50.19 56.89,50.69 C57.16,50.82 57.65,50.68 57.83,51.03 C58.15,51.48 57.52,51.97 58.1,52.19 C58.32,52.22 58.48,52.22 58.61,52.18 C59.1,52.23 58.01,52.71 58.58,53.19 C60.46,53.4 58.29,55.69 61.01,55.1 C63.68,54.5 66.28,53.11 69.24,53.79 C71.85,54.29 74.15,55.84 77.07,55.3 L77.43,55.2 C77.44,55.27 77.27,55.5 77.27,55.5 C75.47,57.86 73.27,59.52 69.86,58.68 C67.63,58.13 65.57,55.27 62.01,56.31 C60.19,56.83 57.31,57.36 56.09,56.61 C55.16,55.99 55.98,55.2 55.71,54.54 C55.52,54.08 55.21,54.47 54.99,54.08 C54.81,53.75 55.5,53.47 55.11,53.29 C54.91,53.23 54.58,53.21 54.47,53.11 C54.02,52.7 55.14,51.85 53.96,51.67 C53.41,51.55 52.66,51.49 52.59,51.08 C52.23,50.33 54.58,49.22 53.47,47.38 C53.2,46.94 53.56,43.77 54.78,41.97 C55.64,40.69 57.74,39.35 57.74,39.35 L70.14,29.71 C70.99,29 71.39,28.69 71.75,28 C71.98,27.54 72.3,28.55 72.34,28.71" id="Path" fill-rule="nonzero"></path>
                <path d="M72.34,28.71 C72.71,29.98 72.62,31.81 71.51,32.83 L69.75,34.33 L58.09,43.46 C56.91,44.65 56.88,46.49 57.21,48.07 C57.83,49.07 56.11,50.19 56.89,50.69 C57.16,50.82 57.65,50.68 57.83,51.03 C58.15,51.48 57.52,51.97 58.1,52.19 C58.32,52.22 58.48,52.22 58.61,52.18 C59.1,52.23 58.01,52.71 58.58,53.19 C60.46,53.4 58.29,55.69 61.01,55.1 C63.68,54.5 66.28,53.11 69.24,53.79 C71.85,54.29 74.15,55.84 77.07,55.3 L77.43,55.2 C77.44,55.27 77.27,55.5 77.27,55.5 C75.47,57.86 73.27,59.52 69.86,58.68 C67.63,58.13 65.57,55.27 62.01,56.31 C60.19,56.83 57.31,57.36 56.09,56.61 C55.16,55.99 55.98,55.2 55.71,54.54 C55.52,54.08 55.21,54.47 54.99,54.08 C54.81,53.75 55.5,53.47 55.11,53.29 C54.91,53.23 54.58,53.21 54.47,53.11 C54.02,52.7 55.14,51.85 53.96,51.67 C53.41,51.55 52.66,51.49 52.59,51.08 C52.23,50.33 54.58,49.22 53.47,47.38 C53.2,46.94 53.56,43.77 54.78,41.97 C55.64,40.69 57.74,39.35 57.74,39.35 L70.14,29.71 C70.99,29 71.39,28.69 71.75,28 C71.98,27.54 72.3,28.55 72.34,28.71 Z" id="Path" fill-rule="nonzero"></path>
                <path d="M35.82,55.56 C40.29,57.28 45.59,59.56 50.06,62.34 C50.92,62.92 51.3,64.01 50.96,65.05 C49.72,67.9 44.54,68.89 46.14,72.88 C46.69,74.3 48.01,75.4 49.55,75.49 C49.86,75.53 50.26,75.46 50.88,75.26 L51.26,75.8 C50.52,76.44 50.18,76.65 49.78,76.91 C48.86,77.51 47.43,78.12 45.44,77.79 C44.28,77.51 43.16,76.89 42.43,75.78 C41.73,74.72 41.61,73.01 42.23,71.86 C43.38,69.6 46.71,68.31 47.05,66.44 C47.22,65.4 46.19,64.47 45.34,63.93 C38.88,60.2 32,57.5 24.86,55.41 C23.96,55.16 22.56,54.71 21.58,56.03 L21.1,55.66 C21.17,54.46 21.82,53.3 22.93,52.72 C24.88,51.84 27.57,52.85 29.07,53.3 L35.82,55.56 Z" id="Path" fill-rule="nonzero"></path>
                <path d="M35.82,55.56 C40.29,57.28 45.59,59.56 50.06,62.34 C50.92,62.92 51.3,64.01 50.96,65.05 C49.72,67.9 44.54,68.89 46.14,72.88 C46.69,74.3 48.01,75.4 49.55,75.49 C49.86,75.53 50.26,75.46 50.88,75.26 L51.26,75.8 C50.52,76.44 50.18,76.65 49.78,76.91 C48.86,77.51 47.43,78.12 45.44,77.79 C44.28,77.51 43.16,76.89 42.43,75.78 C41.73,74.72 41.61,73.01 42.23,71.86 C43.38,69.6 46.71,68.31 47.05,66.44 C47.22,65.4 46.19,64.47 45.34,63.93 C38.88,60.2 32,57.5 24.86,55.41 C23.96,55.16 22.56,54.71 21.58,56.03 L21.1,55.66 C21.17,54.46 21.82,53.3 22.93,52.72 C24.88,51.84 27.57,52.85 29.07,53.3 L35.82,55.56 Z M72.35,28.71 C72.72,29.98 72.63,31.81 71.52,32.83 L69.76,34.33 L58.1,43.46 C56.93,44.65 56.89,46.49 57.22,48.07 C57.84,49.07 56.12,50.19 56.9,50.69 C57.17,50.82 57.66,50.68 57.84,51.03 C58.17,51.48 57.53,51.97 58.11,52.19 C58.33,52.22 58.49,52.22 58.62,52.18 C59.11,52.23 58.02,52.71 58.59,53.19 C60.47,53.4 58.3,55.69 61.02,55.1 C63.69,54.5 66.29,53.11 69.25,53.79 C71.86,54.29 74.16,55.84 77.08,55.3 L77.44,55.2 C77.45,55.27 77.29,55.5 77.29,55.5 C75.49,57.86 73.3,59.52 69.88,58.68 C67.65,58.13 65.59,55.27 62.02,56.31 C60.2,56.83 57.32,57.36 56.1,56.61 C55.17,55.99 55.99,55.2 55.72,54.54 C55.53,54.08 55.22,54.47 55,54.08 C54.82,53.75 55.52,53.47 55.13,53.29 C54.93,53.23 54.6,53.21 54.49,53.11 C54.04,52.7 55.15,51.85 53.98,51.68 C53.43,51.56 52.69,51.5 52.61,51.09 C52.25,50.34 54.6,49.23 53.49,47.39 C53.22,46.95 53.58,43.78 54.8,41.98 C55.66,40.7 57.76,39.36 57.76,39.36 L70.16,29.72 C70.98,29 71.39,28.7 71.74,28 C71.98,27.54 72.3,28.55 72.35,28.71 Z M75.26,19.17 C75.84,21.25 73.39,23.05 71.75,24.49 L63.02,31.42 L52.38,39.85 C50.58,41.46 50.6,44.15 50.17,46.48 C50.14,47.3 51.21,47.86 50.68,48.77 C49.75,50.34 48.68,51 49.22,51.73 C49.64,52.3 52.07,51.71 51.03,53.56 C50.85,54.54 52.92,53.65 51.85,54.45 C51.51,55.06 51.92,55.35 52.36,55.39 C52.98,55.64 51.93,56.75 52.48,57.52 C54.17,59.62 60.13,56.64 60.51,60.33 C60.73,64.41 52.24,64.03 54.38,69.29 C54.86,70.35 55.96,70.76 57,70.87 C57.45,70.89 57.9,70.83 58.68,70.7 L58.87,71.11 C58.87,71.11 58.61,71.37 57.86,71.86 C56.33,72.81 53.53,73.79 51.78,72.64 C50.63,71.78 50.09,70.69 50.06,69.36 C50.19,65.91 54.26,65.5 55.88,62.84 C56.18,62.38 56.11,61.57 55.78,61.13 C54.52,59.34 52.11,59.77 50.06,59.82 C49.17,59.79 48.47,59.4 48.35,58.51 C48.25,57.61 48.75,57.13 48.43,56.73 C48.12,56.4 47.58,56.43 47.44,56 C47.37,55.78 47.44,55.64 47.71,55.35 C48.51,54.84 46.18,55.23 46.99,54.02 C47.22,53.84 47.29,53.59 47.23,53.29 C46.75,52.39 45.31,53.29 44.98,52.24 C44.73,50.97 48.32,49.22 46.4,47.19 C46.41,47.13 46.36,47.02 46.36,46.95 C46.34,45.85 47.28,41.54 48.34,39.14 C48.94,37.86 50.44,36.89 51.55,35.93 L69.22,22.08 C71.03,20.62 72.95,19.21 73.24,16.86 C74.41,17.23 75.02,18.21 75.26,19.17 Z M70.56,13.67 C71.07,16.36 68.97,18.41 66.94,20 L59.91,25.42 C59.91,25.42 46.85,35.45 46.26,36.16 C45.97,36.51 46.26,36.16 46.26,36.16 C44.26,38.22 43.89,44.06 42.45,47.91 C41.15,50.66 39.66,51.07 34.42,50.97 L28.29,50.97 C27.62,50.96 27.31,51.06 26.92,51.87 L26.28,51.83 C26.16,50.12 26.57,48.6 28.11,47.75 C28.9,47.41 29.76,47.5 30.63,47.5 C33.22,47.5 35.09,47.5 37.78,47.5 C38.54,47.44 39.08,47.21 39.34,46.61 C40.61,41.69 40.51,36.04 45.06,32.65 L59.42,21.5 C62.67,18.65 67.67,16.16 68.66,11.66 C69.74,11.88 70.23,12.7 70.56,13.67 Z M64.33,13.72 L63.92,14.7 L63.54,14.43 L63.43,14.54 L64.4,15.5 L64.51,15.39 L64.28,15.05 L65.57,11.92 L65.4,11.75 L62.32,13.09 L61.98,12.86 L61.87,12.98 L62.71,13.81 L62.82,13.7 L62.55,13.31 L63.49,12.86 L64.33,13.72 Z M64.96,12.21 L64.43,13.48 L63.72,12.77 L64.96,12.21 Z M64.33,13.72 L63.92,14.7 L63.54,14.43 L63.43,14.54 L64.4,15.5 L64.51,15.39 L64.28,15.05 L65.57,11.92 L65.4,11.75 L62.32,13.09 L61.98,12.86 L61.87,12.98 L62.71,13.81 L62.82,13.7 L62.55,13.31 L63.49,12.86 L64.33,13.72 Z M64.96,12.21 L64.43,13.48 L63.72,12.77 L64.96,12.21 Z M63.36,9.99 C63.2,9.83 63.08,9.61 62.9,9.47 C62.39,9.04 61.83,9.1 61.51,9.48 C60.74,10.4 62.11,11.22 61.59,11.84 C61.32,12.16 60.97,12.11 60.67,11.86 C60.51,11.73 60.3,11.41 60.35,11.19 C60.38,11.05 60.47,10.85 60.6,10.64 L60.46,10.57 L60,11.2 C60.07,11.48 60.34,11.8 60.58,12.01 C61.11,12.46 61.68,12.39 62.07,11.93 C62.68,11.2 61.33,10.36 61.91,9.66 C62.14,9.39 62.47,9.38 62.74,9.6 C63.05,9.86 62.97,10.19 62.81,10.5 L62.95,10.58 L63.36,9.99 Z M61.12,8.27 L61.21,8.14 L60.11,7.43 L60.02,7.56 L60.36,7.88 L59.48,9.24 C59.34,9.45 59.11,9.8 58.84,9.89 C58.5,10 58.13,9.87 57.93,9.74 C57.32,9.35 57.34,8.81 57.74,8.22 L58.68,6.78 L59.11,6.97 L59.2,6.84 L58.04,6.08 L57.95,6.21 L58.29,6.53 L57.26,8.12 C56.85,8.72 56.93,9.4 57.76,9.94 C58.65,10.52 59.32,10.19 59.82,9.42 L60.68,8.09 L61.12,8.27 Z M55.95,6.9 C56.06,6.7 55.97,6.45 55.77,6.34 C55.56,6.24 55.31,6.32 55.21,6.52 C55.11,6.73 55.19,6.97 55.39,7.08 C55.6,7.19 55.85,7.1 55.95,6.9 Z M54.41,4.23 C54.21,4.12 54.03,3.95 53.82,3.85 C53.22,3.58 52.69,3.79 52.48,4.24 C51.99,5.34 53.54,5.74 53.21,6.48 C53.04,6.86 52.69,6.92 52.33,6.76 C52.15,6.68 51.85,6.43 51.84,6.21 C51.83,6.06 51.86,5.85 51.93,5.61 L51.77,5.58 L51.5,6.32 C51.65,6.57 51.99,6.81 52.29,6.94 C52.93,7.22 53.45,7 53.7,6.45 C54.09,5.58 52.55,5.14 52.92,4.31 C53.07,3.98 53.38,3.89 53.7,4.03 C54.07,4.19 54.09,4.53 54.02,4.88 L54.17,4.92 L54.41,4.23 Z M50.22,2.86 L51.21,3.2 L51.18,3.68 L51.32,3.73 L51.49,3.02 L49.43,2.31 L49.38,2.46 L49.79,2.69 L48.87,5.35 L48.41,5.27 L48.36,5.42 L50.63,6.2 L51.07,5.51 L50.91,5.45 L50.56,5.87 L49.32,5.44 L49.74,4.22 L50.57,4.5 L50.54,4.9 L50.67,4.95 C50.73,4.7 50.87,4.28 50.98,4.05 L50.85,4 L50.65,4.31 L49.83,4.03 L50.22,2.86 Z M48.33,2.06 C47.98,1.89 47.44,1.7 47.11,1.63 C45.94,1.38 45.18,1.86 44.96,2.9 C44.7,4.12 45.41,4.78 46.46,5.01 C46.76,5.07 47.09,5.1 47.44,5.08 L47.91,4.53 L47.81,4.41 C47.47,4.78 47.04,4.91 46.56,4.81 C45.7,4.63 45.25,3.74 45.45,2.79 C45.63,1.93 46.21,1.66 47.04,1.83 C47.92,2.02 48.08,2.44 48.04,2.87 L48.2,2.9 L48.33,2.06 Z M44.48,1.35 L44.5,1.19 L43.12,1.02 L43.1,1.18 L43.55,1.32 L43.21,4.12 L42.74,4.14 L42.72,4.3 L44.1,4.47 L44.12,4.31 L43.67,4.17 L44.01,1.37 L44.48,1.35 Z M40.24,1.01 L40.71,0.96 L40.72,0.8 L39.33,0.7 L39.32,0.86 L39.78,0.97 L40.75,4.14 L40.94,4.16 C41.3,3.34 41.92,1.95 42.32,1.15 L42.65,1.09 L42.66,0.93 L41.57,0.85 L41.56,1.01 L42.02,1.12 L40.99,3.41 L40.24,1.01 Z M36.52,1.01 C36.6,0.99 36.68,0.98 36.77,0.98 C37.3,0.97 37.58,1.26 37.59,1.79 C37.6,2.45 37.32,2.49 36.74,2.5 C36.67,2.5 36.59,2.5 36.54,2.5 L36.52,1.01 Z M35.62,3.96 L35.62,4.12 L37.03,4.1 L37.03,3.94 L36.57,3.87 L36.55,2.7 C36.73,2.7 36.9,2.69 37.05,2.67 C37.36,3.1 37.7,3.55 38.07,3.97 C38.1,4 38.28,4.04 38.39,4.07 L38.75,4.15 L38.79,4.01 C38.49,3.89 38.27,3.59 38.09,3.36 L37.47,2.56 C37.79,2.33 38.06,1.98 38.05,1.58 C38.04,1.02 37.59,0.79 37.11,0.79 L35.56,0.82 L35.56,0.98 L36.05,1.05 L36.1,3.87 L35.62,3.96 Z M36.52,1.01 C36.6,0.99 36.68,0.98 36.77,0.98 C37.3,0.97 37.58,1.26 37.59,1.79 C37.6,2.45 37.32,2.49 36.74,2.5 C36.67,2.5 36.59,2.5 36.54,2.5 L36.52,1.01 Z M35.62,3.96 L35.62,4.12 L37.03,4.1 L37.03,3.94 L36.57,3.87 L36.55,2.7 C36.73,2.7 36.9,2.69 37.05,2.67 C37.36,3.1 37.7,3.55 38.07,3.97 C38.1,4 38.28,4.04 38.39,4.07 L38.75,4.15 L38.79,4.01 C38.49,3.89 38.27,3.59 38.09,3.36 L37.47,2.56 C37.79,2.33 38.06,1.98 38.05,1.58 C38.04,1.02 37.59,0.79 37.11,0.79 L35.56,0.82 L35.56,0.98 L36.05,1.05 L36.1,3.87 L35.62,3.96 Z M33.07,1.42 L34.11,1.29 L34.29,1.74 L34.44,1.72 L34.29,1.01 L32.13,1.27 L32.15,1.43 L32.62,1.45 L32.96,4.25 L32.5,4.39 L32.52,4.55 L34.9,4.26 L35,3.43 L34.83,3.45 L34.7,3.99 L33.4,4.15 L33.24,2.87 L34.11,2.76 L34.24,3.11 L34.38,3.09 C34.32,2.84 34.27,2.4 34.26,2.14 L34.12,2.16 L34.07,2.52 L33.21,2.62 L33.07,1.42 Z M31,1.59 C30.77,1.61 30.53,1.58 30.3,1.63 C29.65,1.77 29.35,2.25 29.45,2.74 C29.7,3.91 31.19,3.33 31.36,4.12 C31.44,4.53 31.19,4.78 30.81,4.86 C30.61,4.9 30.23,4.88 30.09,4.71 C30,4.59 29.9,4.41 29.81,4.17 L29.66,4.24 L29.87,4.99 C30.14,5.11 30.56,5.1 30.87,5.03 C31.55,4.89 31.85,4.39 31.72,3.81 C31.52,2.87 30.02,3.42 29.84,2.54 C29.76,2.19 29.96,1.92 30.31,1.85 C30.7,1.77 30.92,2.03 31.06,2.35 L31.21,2.29 L31,1.59 Z M23.64,7.28 L23.7,7.43 L24.82,6.95 L24.76,6.8 L24.28,6.91 L23.31,4.63 C24.01,4.95 26.24,5.98 26.67,6.19 L26.9,6.1 L25.69,3.26 L26.09,3 L26.03,2.85 L24.93,3.32 L24.99,3.47 L25.45,3.36 L26.36,5.51 L23.22,4.05 L22.42,4.39 L22.48,4.54 L22.94,4.43 L24.04,7.02 L23.64,7.28 Z M21.57,7.16 L22.4,7.82 L22.03,8.11 L22.11,8.25 L23.31,7.59 L23.23,7.45 L22.84,7.57 L20.19,5.46 L19.98,5.58 L20.42,8.92 L20.11,9.19 L20.19,9.33 L21.22,8.76 L21.14,8.62 L20.7,8.77 L20.53,7.74 L21.57,7.16 Z M20.29,6.14 L21.37,7 L20.49,7.49 L20.29,6.14 Z M21.57,7.16 L22.4,7.82 L22.03,8.11 L22.11,8.25 L23.31,7.59 L23.23,7.45 L22.84,7.57 L20.19,5.46 L19.98,5.58 L20.42,8.92 L20.11,9.19 L20.19,9.33 L21.22,8.76 L21.14,8.62 L20.7,8.77 L20.53,7.74 L21.57,7.16 Z M20.29,6.14 L21.37,7 L20.49,7.49 L20.29,6.14 Z M17.72,7.17 L17.62,7.04 L16.81,7.65 L17.46,10.2 L15.17,8.89 L14.35,9.51 L14.45,9.64 L14.9,9.4 L16.37,11.82 L16.1,12.13 L16.2,12.26 L17.09,11.59 L16.99,11.46 L16.59,11.66 L15.23,9.46 L15.23,9.45 L15.24,9.44 L17.88,10.95 L17.92,10.92 L17.15,7.92 L17.14,7.91 L17.15,7.9 L18.94,9.86 L18.62,10.2 L18.72,10.33 L19.81,9.51 L19.71,9.38 L19.31,9.58 L17.39,7.5 L17.72,7.17 Z M13.62,10.32 L13.51,10.21 L12.59,11.13 L12.7,11.24 L13.08,10.97 L14.23,12.12 C14.41,12.3 14.71,12.59 14.73,12.88 C14.77,13.24 14.56,13.57 14.4,13.74 C13.89,14.25 13.36,14.12 12.88,13.61 L11.67,12.4 L11.94,12.02 L11.83,11.9 L10.85,12.88 L10.96,13 L11.34,12.73 L12.68,14.07 C13.19,14.6 13.87,14.66 14.57,13.96 C15.32,13.21 15.14,12.49 14.49,11.84 L13.37,10.72 L13.62,10.32 Z M9.84,16.7 L10.99,15.22 L12.06,16.06 L11.84,16.47 L11.97,16.57 L12.82,15.48 L12.69,15.38 L12.34,15.7 L10.12,13.96 L10.34,13.55 L10.21,13.45 L9.36,14.55 L9.49,14.65 L9.84,14.34 L10.8,15.09 L9.65,16.57 L8.69,15.8 L8.91,15.39 L8.78,15.29 L7.93,16.38 L8.06,16.48 L8.41,16.16 L10.63,17.9 L10.41,18.31 L10.54,18.41 L11.4,17.32 L11.27,17.22 L10.92,17.54 L9.84,16.7 Z M6.96,22.35 C6.67,22.18 6.55,21.87 6.56,21.54 C7.07,21.26 7.59,20.99 8.09,20.73 C8.23,21.08 8.28,21.46 8.14,21.82 C7.95,22.32 7.46,22.64 6.96,22.35 Z M6.21,21.23 C6,21.25 5.86,21.26 5.67,21.16 C5.43,21.02 5.33,20.79 5.48,20.54 C5.61,20.32 5.88,20.36 6.08,20.47 C6.33,20.61 6.44,20.82 6.46,21.16 L6.21,21.23 Z M6.43,21.57 C6.39,21.93 6.37,22.51 6.89,22.81 C7.37,23.09 7.87,22.87 8.24,22.22 C8.51,21.74 8.4,21.17 8.21,20.68 C8.51,20.57 8.84,20.58 9.16,20.59 L9.47,19.89 L9.35,19.82 C9.1,20.4 8.63,20.02 8.02,20.32 C7.89,20.16 7.75,20 7.55,19.89 C7.07,19.61 6.7,19.78 6.68,19.82 C6.63,19.91 6.58,20.14 6.54,20.25 L6.62,20.29 C6.7,20.1 6.78,20 6.99,19.97 C7.31,19.92 7.67,20.09 7.89,20.4 C7.72,20.48 7.56,20.56 7.4,20.64 L6.57,21.1 C6.59,20.75 6.54,20.42 6.21,20.22 C5.93,20.06 5.55,20.16 5.39,20.43 C5.14,20.86 5.31,21.28 5.67,21.48 C5.9,21.63 6.18,21.66 6.43,21.57 Z M6.96,22.35 C6.67,22.18 6.55,21.87 6.56,21.54 C7.07,21.26 7.59,20.99 8.09,20.73 C8.23,21.08 8.28,21.46 8.14,21.82 C7.95,22.32 7.46,22.64 6.96,22.35 Z M6.21,21.23 C6,21.25 5.86,21.26 5.67,21.16 C5.43,21.02 5.33,20.79 5.48,20.54 C5.61,20.32 5.88,20.36 6.08,20.47 C6.33,20.61 6.44,20.82 6.46,21.16 L6.21,21.23 Z M6.43,21.57 C6.39,21.93 6.37,22.51 6.89,22.81 C7.37,23.09 7.87,22.87 8.24,22.22 C8.51,21.74 8.4,21.17 8.21,20.68 C8.51,20.57 8.84,20.58 9.16,20.59 L9.47,19.89 L9.35,19.82 C9.1,20.4 8.63,20.02 8.02,20.32 C7.89,20.16 7.75,20 7.55,19.89 C7.07,19.61 6.7,19.78 6.68,19.82 C6.63,19.91 6.58,20.14 6.54,20.25 L6.62,20.29 C6.7,20.1 6.78,20 6.99,19.97 C7.31,19.92 7.67,20.09 7.89,20.4 C7.72,20.48 7.56,20.56 7.4,20.64 L6.57,21.1 C6.59,20.75 6.54,20.42 6.21,20.22 C5.93,20.06 5.55,20.16 5.39,20.43 C5.14,20.86 5.31,21.28 5.67,21.48 C5.9,21.63 6.18,21.66 6.43,21.57 Z M4.27,27.33 L4.88,25.56 L6.17,26 L6.1,26.46 L6.25,26.51 L6.7,25.2 L6.55,25.15 L6.32,25.56 L3.66,24.64 L3.73,24.18 L3.58,24.13 L3.13,25.44 L3.28,25.49 L3.51,25.08 L4.66,25.47 L4.05,27.24 L2.9,26.84 L2.98,26.38 L2.83,26.33 L2.38,27.64 L2.53,27.69 L2.76,27.28 L5.42,28.2 L5.35,28.66 L5.5,28.71 L5.95,27.4 L5.8,27.35 L5.57,27.76 L4.27,27.33 Z M4.65,31.38 L4.81,31.42 L5.17,29.95 L5.02,29.91 L4.81,30.4 L2.1,29.73 L2.24,29.15 C2.28,28.98 2.33,28.82 2.38,28.67 L2.92,28.69 L2.96,28.52 L2.17,28.37 L1.42,31.37 L2.18,31.66 L2.22,31.5 L1.75,31.2 C1.78,31.06 1.81,30.9 1.85,30.74 L1.99,30.17 L4.7,30.85 L4.65,31.38 Z M4.21,34.72 L4.62,32.41 L3.74,32.04 L3.71,32.2 L4.29,32.58 L4.08,33.76 L1.35,33.28 L1.35,32.81 L1.2,32.78 L0.96,34.15 L1.12,34.18 L1.28,33.74 L4.06,34.23 L4.06,34.7 L4.21,34.72 Z M2.85,36.52 L3.84,36.13 L3.91,36.59 L4.07,36.59 L4.09,35.22 L3.93,35.22 L3.84,35.62 L0.7,36.87 L0.7,37.11 L3.8,38.4 L3.87,38.8 L4.03,38.8 L4.05,37.62 L3.89,37.62 L3.8,38.08 L2.82,37.71 L2.85,36.52 Z M1.33,37.11 L2.61,36.61 L2.59,37.62 L1.33,37.11 Z M2.85,36.52 L3.84,36.13 L3.91,36.59 L4.07,36.59 L4.09,35.22 L3.93,35.22 L3.84,35.62 L0.7,36.87 L0.7,37.11 L3.8,38.4 L3.87,38.8 L4.03,38.8 L4.05,37.62 L3.89,37.62 L3.8,38.08 L2.82,37.71 L2.85,36.52 Z M1.33,37.11 L2.61,36.61 L2.59,37.62 L1.33,37.11 Z M1.1,41.08 L1.03,40.04 L1.48,39.88 L1.47,39.73 L0.75,39.85 L0.9,42.02 L1.06,42.01 L1.11,41.54 L3.92,41.35 L4.03,41.81 L4.19,41.8 L4.02,39.4 L3.21,39.26 L3.22,39.43 L3.75,39.58 L3.84,40.89 L2.55,40.98 L2.49,40.11 L2.85,40 L2.84,39.86 C2.59,39.9 2.14,39.94 1.89,39.92 L1.9,40.06 L2.26,40.12 L2.31,41 L1.1,41.08 Z M3.07,45.33 L2.74,43.49 L4.08,43.25 L4.24,43.69 L4.4,43.66 L4.16,42.3 L4,42.32 L4,42.79 L1.22,43.28 L1.06,42.84 L0.9,42.87 L1.14,44.24 L1.3,44.21 L1.3,43.74 L2.5,43.53 L2.82,45.37 L1.62,45.58 L1.46,45.14 L1.3,45.17 L1.54,46.54 L1.7,46.51 L1.7,46.04 L4.47,45.55 L4.63,45.99 L4.79,45.96 L4.55,44.59 L4.4,44.62 L4.4,45.09 L3.07,45.33 Z M4.37,49.01 L4.33,48.88 C4.1,48.99 3.67,49.12 3.42,49.18 L3.46,49.31 L3.83,49.29 L4.12,50.2 L2.96,50.58 L2.63,49.56 L3.06,49.3 L3.01,49.15 L2.31,49.44 L3.01,51.59 L3.16,51.54 L3.08,51.03 L5.76,50.16 L6,50.6 L6.15,50.55 L5.69,49.14 L5.54,49.19 L5.62,49.7 L4.35,50.11 L4.06,49.2 L4.37,49.01 Z M3.98,54.07 C4.39,55.02 5.26,55.34 6.26,54.92 C7.13,54.55 7.58,53.73 7.11,52.62 C6.71,51.68 5.84,51.32 4.97,51.69 C3.97,52.12 3.51,52.96 3.98,54.07 Z M5.86,54.54 C5.07,54.88 4.43,54.67 4.15,54.02 C3.88,53.39 4.2,52.56 5.11,52.17 C5.82,51.87 6.58,51.85 6.92,52.66 C7.25,53.43 6.82,54.14 5.86,54.54 Z M3.98,54.07 C4.39,55.02 5.26,55.34 6.26,54.92 C7.13,54.55 7.58,53.73 7.11,52.62 C6.71,51.68 5.84,51.32 4.97,51.69 C3.97,52.12 3.51,52.96 3.98,54.07 Z M5.86,54.54 C5.07,54.88 4.43,54.67 4.15,54.02 C3.88,53.39 4.2,52.56 5.11,52.17 C5.82,51.87 6.58,51.85 6.92,52.66 C7.25,53.43 6.82,54.14 5.86,54.54 Z M10.19,58.61 L10.32,58.52 L9.48,57.26 L9.35,57.35 L9.58,57.83 L7.25,59.4 L6.91,58.9 C6.81,58.75 6.72,58.61 6.65,58.48 L7.02,58.09 L6.92,57.94 L6.27,58.43 L8.01,61 L8.74,60.63 L8.65,60.49 L8.12,60.64 C8.03,60.53 7.94,60.4 7.84,60.26 L7.51,59.77 L9.83,58.21 L10.19,58.61 Z M13.47,62.7 L13.59,62.6 L12.81,61.67 L12.69,61.77 L12.94,62.19 L11.04,63.78 C11.14,63.02 11.48,60.58 11.55,60.11 L11.4,59.93 L9.04,61.91 L8.68,61.61 L8.56,61.71 L9.33,62.63 L9.45,62.53 L9.21,62.13 L11,60.63 L10.52,64.06 L11.08,64.72 L11.2,64.62 L10.96,64.21 L13.12,62.4 L13.47,62.7 Z M13.04,66.21 L12.3,65.47 L12.54,65.05 L12.44,64.94 L11.97,65.5 L13.51,67.04 L13.62,66.93 L13.35,66.54 L15.34,64.55 L15.72,64.82 L15.83,64.71 L14.13,63.01 L13.42,63.44 L13.54,63.56 L14.04,63.33 L14.96,64.26 L14.05,65.17 L13.43,64.55 L13.63,64.23 L13.53,64.13 C13.37,64.33 13.06,64.64 12.85,64.8 L12.95,64.9 L13.26,64.71 L13.87,65.33 L13.04,66.21 Z M14.58,67.78 L14.49,67.91 L15.31,68.5 L17.56,67.14 L16.98,69.72 L17.81,70.33 L17.9,70.2 L17.54,69.84 L19.43,67.73 L19.8,67.9 L19.89,67.77 L19,67.11 L18.9,67.24 L19.21,67.57 L17.5,69.5 L17.5,69.51 L17.49,69.51 L18.16,66.54 L18.11,66.51 L15.47,68.12 L15.46,68.13 L15.45,68.13 L16.8,65.84 L17.22,66.05 L17.31,65.92 L16.21,65.12 L16.11,65.25 L16.42,65.57 L14.99,68.02 L14.58,67.78 Z M22.24,69.28 L22.32,69.14 L21.01,68.38 L20.93,68.52 L21.34,68.85 L19.94,71.27 L19.42,70.97 C19.27,70.88 19.12,70.79 19,70.7 L19.17,70.19 L19.02,70.1 L18.65,70.82 L21.33,72.37 L21.82,71.72 L21.68,71.64 L21.27,72.01 C21.14,71.95 21,71.88 20.86,71.79 L20.35,71.5 L21.75,69.08 L22.24,69.28 Z M24.02,73.38 C23.94,73.37 23.86,73.34 23.78,73.3 C23.29,73.08 23.17,72.7 23.38,72.22 C23.65,71.61 23.92,71.7 24.45,71.94 C24.51,71.97 24.58,72 24.63,72.03 L24.02,73.38 Z M26.09,71.08 L26.16,70.93 L24.87,70.35 L24.81,70.5 L25.2,70.76 L24.73,71.82 C24.57,71.75 24.41,71.68 24.26,71.63 C24.17,71.11 24.04,70.55 23.89,70.02 C23.88,69.98 23.73,69.87 23.64,69.8 L23.35,69.57 L23.25,69.68 C23.47,69.91 23.54,70.28 23.61,70.56 L23.84,71.55 C23.45,71.62 23.07,71.83 22.9,72.2 C22.67,72.72 22.98,73.12 23.42,73.31 L24.84,73.94 L24.91,73.79 L24.5,73.52 L25.65,70.95 L26.09,71.08 Z M24.02,73.38 C23.94,73.37 23.86,73.34 23.78,73.3 C23.29,73.08 23.17,72.7 23.38,72.22 C23.65,71.61 23.92,71.7 24.45,71.94 C24.51,71.97 24.58,72 24.63,72.03 L24.02,73.38 Z M26.09,71.08 L26.16,70.93 L24.87,70.35 L24.81,70.5 L25.2,70.76 L24.73,71.82 C24.57,71.75 24.41,71.68 24.26,71.63 C24.17,71.11 24.04,70.55 23.89,70.02 C23.88,69.98 23.73,69.87 23.64,69.8 L23.35,69.57 L23.25,69.68 C23.47,69.91 23.54,70.28 23.61,70.56 L23.84,71.55 C23.45,71.62 23.07,71.83 22.9,72.2 C22.67,72.72 22.98,73.12 23.42,73.31 L24.84,73.94 L24.91,73.79 L24.5,73.52 L25.65,70.95 L26.09,71.08 Z M27.42,72.61 L27.36,71.55 L27.82,71.62 L27.87,71.47 L26.58,71.03 L26.53,71.18 L26.88,71.39 L27.09,74.77 L27.32,74.85 L29.51,72.29 L29.92,72.34 L29.97,72.19 L28.85,71.81 L28.8,71.96 L29.21,72.19 L28.55,73 L27.42,72.61 Z M27.52,74.24 L27.44,72.87 L28.39,73.2 L27.52,74.24 Z M27.42,72.61 L27.36,71.55 L27.82,71.62 L27.87,71.47 L26.58,71.03 L26.53,71.18 L26.88,71.39 L27.09,74.77 L27.32,74.85 L29.51,72.29 L29.92,72.34 L29.97,72.19 L28.85,71.81 L28.8,71.96 L29.21,72.19 L28.55,73 L27.42,72.61 Z M27.52,74.24 L27.44,72.87 L28.39,73.2 L27.52,74.24 Z M32.62,72.88 L32.65,72.72 L31.2,72.41 L31.17,72.57 L31.67,72.76 L31.07,75.56 C30.95,75.55 30.83,75.53 30.71,75.5 C30.3,75.41 30.04,75.14 30.11,74.64 C30.16,74.27 30.37,73.81 31,73.94 C31.08,73.96 31.15,73.98 31.22,74.02 L31.25,74 L31.28,73.87 C31.18,73.82 31.08,73.79 30.97,73.76 C30.34,73.63 29.77,73.98 29.63,74.62 C29.49,75.26 29.97,75.53 30.55,75.65 L31.95,75.95 L32,75.79 L31.54,75.61 L32.13,72.86 L32.62,72.88 Z M34.46,76.02 L33.42,75.89 L33.35,75.41 L33.2,75.4 L33.18,76.13 L35.34,76.39 L35.36,76.23 L34.91,76.09 L35.25,73.29 L35.72,73.27 L35.74,73.11 L33.36,72.82 L33.07,73.59 L33.24,73.61 L33.49,73.12 L34.79,73.28 L34.63,74.56 L33.76,74.45 L33.72,74.08 L33.58,74.06 C33.58,74.32 33.52,74.76 33.46,75.01 L33.6,75.03 L33.73,74.69 L34.59,74.8 L34.46,76.02 Z M38.99,76.34 C38.79,76.36 38.6,76.36 38.4,76.36 C37.42,76.34 36.8,75.88 36.82,74.79 C36.84,73.89 37.39,73.41 38.2,73.43 C38.5,73.44 38.74,73.48 39.04,73.53 L38.99,76.34 Z M39.97,73.26 L38.27,73.23 C37.2,73.21 36.33,73.7 36.31,74.95 C36.29,76.14 37.16,76.51 38.15,76.53 L39.91,76.56 L39.91,76.4 L39.45,76.31 L39.5,73.49 L39.96,73.42 L39.97,73.26 Z M38.99,76.34 C38.79,76.36 38.6,76.36 38.4,76.36 C37.42,76.34 36.8,75.88 36.82,74.79 C36.84,73.89 37.39,73.41 38.2,73.43 C38.5,73.44 38.74,73.48 39.04,73.53 L38.99,76.34 Z M39.97,73.26 L38.27,73.23 C37.2,73.21 36.33,73.7 36.31,74.95 C36.29,76.14 37.16,76.51 38.15,76.53 L39.91,76.56 L39.91,76.4 L39.45,76.31 L39.5,73.49 L39.96,73.42 L39.97,73.26 Z M35.82,55.56 C40.29,57.28 45.59,59.56 50.06,62.34 C50.92,62.92 51.3,64.01 50.96,65.05 C49.72,67.9 44.54,68.89 46.14,72.88 C46.69,74.3 48.01,75.4 49.55,75.49 C49.86,75.53 50.26,75.46 50.88,75.26 L51.26,75.8 C50.52,76.44 50.18,76.65 49.78,76.91 C48.86,77.51 47.43,78.12 45.44,77.79 C44.28,77.51 43.16,76.89 42.43,75.78 C41.73,74.72 41.61,73.01 42.23,71.86 C43.38,69.6 46.71,68.31 47.05,66.44 C47.22,65.4 46.19,64.47 45.34,63.93 C38.88,60.2 32,57.5 24.86,55.41 C23.96,55.16 22.56,54.71 21.58,56.03 L21.1,55.66 C21.17,54.46 21.82,53.3 22.93,52.72 C24.88,51.84 27.57,52.85 29.07,53.3 L35.82,55.56 Z" id="Shape" fill-rule="nonzero"></path>
            </g>
        </g>
    </g>
</svg>