<svg xmlns="http://www.w3.org/2000/svg" xmlns:xlink="http://www.w3.org/1999/xlink" xmlns:lucid="lucid" width="1020" height="680"><g transform="translate(-100 -460)" lucid:page-tab-id="0_0"><path d="M120 480h980v640H120z" fill="#035c94"/><g filter="url(#a)"><path d="M740 544c0-2.2 1.8-4 4-4h312c2.2 0 4 1.8 4 4v92c0 2.2-1.8 4-4 4H744c-2.2 0-4-1.8-4-4z" stroke="#000" stroke-width="2" fill="#7ebac0"/><use xlink:href="#b" transform="matrix(1,0,0,1,745,545) translate(92.14583333333331 53.91666666666667)"/><use xlink:href="#c" transform="matrix(1,0,0,1,745,545) translate(161.3125 53.91666666666667)"/></g><g filter="url(#d)"><path d="M180 762c0-1.1.9-2 2-2h84c1.1 0 2 .9 2 2v124c0 1.1-.9 2-2 2h-84c-1.1 0-2-.9-2-2z" fill="#fff"/><path d="M236 801c2.5 0 4.6-.88 6.36-2.64 1.76-1.75 2.64-3.87 2.64-6.36 0-2.5-.88-4.6-2.64-6.36-1.75-1.76-3.87-2.64-6.36-2.64-2.5 0-4.6.88-6.36 2.64-1.76 1.75-2.64 3.87-2.64 6.36 0 2.5.88 4.6 2.64 6.36 1.75 1.76 3.87 2.64 6.36 2.64zm-24 0c2.5 0 4.6-.88 6.36-2.64 1.76-1.75 2.64-3.87 2.64-6.36 0-2.5-.88-4.6-2.64-6.36-1.75-1.76-3.87-2.64-6.36-2.64-2.5 0-4.6.88-6.36 2.64-1.76 1.75-2.64 3.87-2.64 6.36 0 2.5.88 4.6 2.64 6.36 1.75 1.76 3.87 2.64 6.36 2.64zm0 6c-7 0-21 3.5-21 10.5v7.5h42v-7.5c0-7-14-10.5-21-10.5zm24 0c-.87 0-1.86.06-2.9.15 3.47 2.52 5.9 5.9 5.9 10.35v7.5h18v-7.5c0-7-14-10.5-21-10.5zm0 0" fill="#aeebf2"/><use xlink:href="#e" transform="matrix(1,0,0,1,180,841) translate(27.0134736328125 28.05751953125)"/></g><g filter="url(#d)"><path d="M340 762c0-1.1.9-2 2-2h84c1.1 0 2 .9 2 2v124c0 1.1-.9 2-2 2h-84c-1.1 0-2-.9-2-2z" fill="#fff"/><path d="M411 774h-54c-1.66 0-3.07.6-4.24 1.76-1.18 1.17-1.76 2.58-1.76 4.24v36c0 1.66.58 3.07 1.76 4.24 1.17 1.17 2.58 1.76 4.24 1.76h21v6h-6v6h24v-6h-6v-6h21c1.66 0 3.07-.6 4.24-1.76 1.18-1.17 1.76-2.58 1.76-4.24v-36c0-1.66-.58-3.07-1.76-4.24-1.17-1.17-2.58-1.76-4.24-1.76zm0 42h-54v-36h54z" fill="#7ebac0"/><use xlink:href="#f" transform="matrix(1,0,0,1,340,841) translate(19.62378125 28.05751953125)"/></g><g filter="url(#a)"><path d="M740 684c0-2.2 1.8-4 4-4h312c2.2 0 4 1.8 4 4v92c0 2.2-1.8 4-4 4H744c-2.2 0-4-1.8-4-4z" stroke="#000" stroke-width="2" fill="#7ebac0"/><use xlink:href="#g" transform="matrix(1,0,0,1,745,685) translate(43.18229166666664 53.91666666666667)"/><use xlink:href="#h" transform="matrix(1,0,0,1,745,685) translate(109.44270833333333 53.91666666666667)"/><use xlink:href="#i" transform="matrix(1,0,0,1,745,685) translate(189.515625 53.91666666666667)"/></g><g filter="url(#a)"><path d="M740 844c0-2.2 1.8-4 4-4h312c2.2 0 4 1.8 4 4v92c0 2.2-1.8 4-4 4H744c-2.2 0-4-1.8-4-4z" stroke="#000" stroke-width="2" fill="#7ebac0"/><use xlink:href="#j" transform="matrix(1,0,0,1,745,845) translate(12.890624999999972 28.322916666666668)"/><use xlink:href="#k" transform="matrix(1,0,0,1,745,845) translate(54.39062499999998 28.322916666666668)"/><use xlink:href="#l" transform="matrix(1,0,0,1,745,845) translate(147.05729166666666 28.322916666666668)"/><use xlink:href="#m" transform="matrix(1,0,0,1,745,845) translate(213.34895833333334 28.322916666666668)"/><use xlink:href="#n" transform="matrix(1,0,0,1,745,845) translate(36.88541666666666 53.32291666666667)"/><use xlink:href="#o" transform="matrix(1,0,0,1,745,845) translate(94.84375 53.32291666666667)"/><use xlink:href="#p" transform="matrix(1,0,0,1,745,845) translate(141.70833333333334 53.32291666666667)"/><use xlink:href="#q" transform="matrix(1,0,0,1,745,845) translate(189.14583333333334 53.32291666666667)"/><use xlink:href="#r" transform="matrix(1,0,0,1,745,845) translate(67.36458333333331 78.32291666666667)"/><use xlink:href="#s" transform="matrix(1,0,0,1,745,845) translate(160.92708333333331 78.32291666666667)"/></g><g filter="url(#a)"><path d="M740 984c0-2.2 1.8-4 4-4h312c2.2 0 4 1.8 4 4v92c0 2.2-1.8 4-4 4H744c-2.2 0-4-1.8-4-4z" stroke="#000" stroke-width="2" fill="#7ebac0"/><use xlink:href="#t" transform="matrix(1,0,0,1,745,985) translate(29.93229166666663 39.69791666666667)"/><use xlink:href="#u" transform="matrix(1,0,0,1,745,985) translate(70.10937499999997 39.69791666666667)"/><use xlink:href="#r" transform="matrix(1,0,0,1,745,985) translate(142.33854166666666 39.69791666666667)"/><use xlink:href="#v" transform="matrix(1,0,0,1,745,985) translate(235.90104166666669 39.69791666666667)"/><use xlink:href="#w" transform="matrix(1,0,0,1,745,985) translate(105.80729166666666 64.69791666666667)"/></g><path d="M429 824h154.5v-94h137" stroke="#aeebf2" stroke-width="2" fill="none"/><path d="M429.03 825H428v-2h1.03z" fill="#aeebf2"/><path d="M735.76 730l-14.26 4.64v-9.28z" stroke="#aeebf2" stroke-width="2" fill="#aeebf2"/><path d="M268.25 824h56.43" stroke="#aeebf2" stroke-width=".5" fill="none"/><path d="M268.26 824.25H268v-.5h.26z" fill="#aeebf2"/><path d="M339.2 824l-14.27 4.64v-9.28z" stroke="#aeebf2" stroke-width=".5" fill="#aeebf2"/><path d="M429 824h154.5V597.7h137" stroke="#aeebf2" stroke-width="2" fill="none"/><path d="M429.03 825H428v-2h1.03z" fill="#aeebf2"/><path d="M735.76 597.7l-14.26 4.64v-9.27z" stroke="#aeebf2" stroke-width="2" fill="#aeebf2"/><path d="M429 824h154.5v66h137" stroke="#aeebf2" stroke-width="2" fill="none"/><path d="M429.03 825H428v-2h1.03z" fill="#aeebf2"/><path d="M735.76 890l-14.26 4.64v-9.28z" stroke="#aeebf2" stroke-width="2" fill="#aeebf2"/><path d="M429 824h154.5v206h137" stroke="#aeebf2" stroke-width="2" fill="none"/><path d="M429.03 825H428v-2h1.03z" fill="#aeebf2"/><path d="M735.76 1030l-14.26 4.64v-9.28z" stroke="#aeebf2" stroke-width="2" fill="#aeebf2"/><defs><path d="M1288 0h-193L362-1122V0H169v-1456h193l735 1127v-1127h191V0" id="x"/><path d="M1288 0h-193v-673H361V0H169v-1456h192v626h734v-626h193V0" id="y"/><path d="M730-137c145 0 253-29 323-105v-327H716v-156h528v534C1148-51 964 20 729 20c-394 0-598-279-607-678v-127c-5-410 194-690 585-691 310-1 499 171 537 447h-192c-36-193-151-289-344-289-285 0-393 220-393 528v119c-5 296 140 534 415 534" id="z"/><path d="M1161-1018c0 201-122 330-278 388l342 618V0h-206L703-589H361V0H168v-1456h482c310-2 511 139 511 438zm-193 0c0-187-120-280-313-280H361v552h295c179 3 313-101 312-272" id="A"/><path d="M375 0H183v-1456h192V0" id="B"/><g id="b"><use transform="matrix(0.010416666666666668,0,0,0.010416666666666668,0,0)" xlink:href="#x"/><use transform="matrix(0.010416666666666668,0,0,0.010416666666666668,15.208333333333336,0)" xlink:href="#y"/><use transform="matrix(0.010416666666666668,0,0,0.010416666666666668,30.41666666666667,0)" xlink:href="#z"/><use transform="matrix(0.010416666666666668,0,0,0.010416666666666668,44.94791666666667,0)" xlink:href="#A"/><use transform="matrix(0.010416666666666668,0,0,0.010416666666666668,58.08333333333334,0)" xlink:href="#B"/></g><path d="M973-380H363L226 0H28l556-1456h168L1309 0h-197zM421-538h495l-248-681" id="C"/><path d="M589-945c-131 0-219 81-264 174V0H140v-1082h175l6 136c83-104 191-156 324-156 229 0 346 129 346 387V0H806v-716c-2-153-65-229-217-229" id="D"/><path d="M651-255l416-1201h210L737 0H567L28-1456h209" id="E"/><path d="M362-157h690V0H169v-1456h193v1299" id="F"/><g id="c"><use transform="matrix(0.010416666666666668,0,0,0.010416666666666668,0,0)" xlink:href="#C"/><use transform="matrix(0.010416666666666668,0,0,0.010416666666666668,13.916666666666668,0)" xlink:href="#D"/><use transform="matrix(0.010416666666666668,0,0,0.010416666666666668,25.687499999999996,0)" xlink:href="#E"/><use transform="matrix(0.010416666666666668,0,0,0.010416666666666668,39.26041666666667,0)" xlink:href="#B"/><use transform="matrix(0.010416666666666668,0,0,0.010416666666666668,45.06250000000001,0)" xlink:href="#F"/></g><filter id="a" filterUnits="objectBoundingBox" x="-.03" y="-.04" width="1.06" height="1.2"><feOffset result="offOut" in="SourceAlpha" dy="6"/><feGaussianBlur result="blurOut" in="offOut" stdDeviation="5"/><feColorMatrix result="colorOut" in="blurOut" values="0 0 0 0 0 0 0 0 0 0 0 0 0 0 0 0 0 0 0.5019607843137255 0"/><feBlend in="SourceGraphic" in2="colorOut"/></filter><path d="M665-137c214 0 337-121 336-332v-987h193v990c-3 300-218 486-529 486-309 0-526-181-525-484v-992h190v986c-1 210 123 333 335 333" id="G"/><path d="M538-131c121 0 232-49 232-156 0-50-20-88-56-117-73-60-334-92-420-143-92-55-162-110-162-238 0-190 192-317 400-317 223 0 414 129 413 338H759c0-108-110-186-227-186-119 0-215 53-215 159 0 45 18 78 53 101 76 52 331 90 416 139 98 57 169 115 169 251C955-92 760 20 538 20c-176 0-314-68-386-174-38-55-57-115-57-179h185c6 129 116 202 258 202" id="H"/><path d="M599-131c141 0 220-65 285-146l113 88C906-50 770 20 589 20 281 21 93-214 93-545c0-223 93-397 233-485 74-48 154-72 240-72 300 2 449 218 445 537v77H278c0 197 129 357 321 357zm227-509c-3-180-88-310-260-310-170 0-264 140-282 310h542" id="I"/><path d="M663-916c-163-27-288 18-338 148V0H140v-1082h180l3 125c61-97 147-145 258-145 36 0 63 5 82 14v172" id="J"/><g id="e"><use transform="matrix(0.0065107421875,0,0,0.0065107421875,0,0)" xlink:href="#G"/><use transform="matrix(0.0065107421875,0,0,0.0065107421875,8.646265625,0)" xlink:href="#H"/><use transform="matrix(0.0065107421875,0,0,0.0065107421875,15.521609374999999,0)" xlink:href="#I"/><use transform="matrix(0.0065107421875,0,0,0.0065107421875,22.5857646484375,0)" xlink:href="#J"/><use transform="matrix(0.0065107421875,0,0,0.0065107421875,27.097708984375,0)" xlink:href="#H"/></g><filter id="d" filterUnits="objectBoundingBox" x="-.02" y="0" width="1.03" height="1.02"><feOffset result="offOut" in="SourceAlpha" dy="1"/><feGaussianBlur result="blurOut" in="offOut" stdDeviation=".75"/><feColorMatrix result="colorOut" in="blurOut" values="0 0 0 0 0 0 0 0 0 0 0 0 0 0 0 0 0 0 0.4 0"/><feBlend in="SourceGraphic" in2="colorOut"/></filter><path d="M1222-777c17 480-206 763-650 777H169v-1456h411c408 9 627 269 642 679zm-190 4c3-312-149-522-447-525H361v1141h202c308 0 473-209 469-531v-85" id="K"/><path d="M442-501L326-380V0H141v-1536h185v929c135-169 291-317 436-475h225L566-630 1036 0H819" id="L"/><path d="M456 20C285 20 205-92 206-268v-671H9v-143h197v-262h185v262h202v143H391v671c-9 125 92 149 207 118V0c-49 13-96 20-142 20" id="M"/><path d="M584 20C278 26 81-227 91-551c10-320 175-545 491-551 308-5 503 247 494 573-9 322-175 543-492 549zm-2-970c-208 0-305 185-305 421 0 216 106 398 307 398 211 0 307-186 307-420 0-214-109-399-309-399" id="N"/><path d="M632-1102c291 0 422 251 422 573 0 297-141 548-419 549-131 0-235-42-310-125v521H140v-1498h169l9 120c75-93 180-140 314-140zm-53 971c207 0 290-180 290-419 0-218-92-395-292-395-112 0-196 50-252 149v517c55 99 140 148 254 148" id="O"/><g id="f"><use transform="matrix(0.0065107421875,0,0,0.0065107421875,0,0)" xlink:href="#K"/><use transform="matrix(0.0065107421875,0,0,0.0065107421875,8.743926757812499,0)" xlink:href="#I"/><use transform="matrix(0.0065107421875,0,0,0.0065107421875,15.808082031249999,0)" xlink:href="#H"/><use transform="matrix(0.0065107421875,0,0,0.0065107421875,22.683425781249998,0)" xlink:href="#L"/><use transform="matrix(0.0065107421875,0,0,0.0065107421875,29.441576171875,0)" xlink:href="#M"/><use transform="matrix(0.0065107421875,0,0,0.0065107421875,33.6670478515625,0)" xlink:href="#N"/><use transform="matrix(0.0065107421875,0,0,0.0065107421875,41.2715947265625,0)" xlink:href="#O"/></g><path d="M1160-420C1159-145 963 0 674 0H169v-1456h476c294-1 476 112 476 388 0 153-99 253-216 302 146 38 255 167 255 346zM678-157c171 2 289-95 289-261 0-175-95-263-286-263H361v524h317zm250-912c-2-172-104-229-283-229H361v463h290c157 3 278-84 277-234" id="P"/><g id="g"><use transform="matrix(0.010416666666666668,0,0,0.010416666666666668,0,0)" xlink:href="#x"/><use transform="matrix(0.010416666666666668,0,0,0.010416666666666668,15.208333333333336,0)" xlink:href="#y"/><use transform="matrix(0.010416666666666668,0,0,0.010416666666666668,30.41666666666667,0)" xlink:href="#F"/><use transform="matrix(0.010416666666666668,0,0,0.010416666666666668,41.89583333333334,0)" xlink:href="#P"/><use transform="matrix(0.010416666666666668,0,0,0.010416666666666668,55.17708333333334,0)" xlink:href="#B"/></g><path d="M341 0H156v-1082h185V0zm-91-1264c-68 0-108-42-109-105 0-62 41-107 109-107s110 44 110 107-42 105-110 105" id="Q"/><path d="M561-1102c238-4 403 126 403 351v498c0 99 13 178 38 237V0H808c-11-21-19-59-26-114C696-25 593 20 474 20c-199 0-368-130-365-320 4-251 214-359 490-356h180v-85c-1-135-86-212-229-212-115 0-232 67-233 171H131c20-205 206-316 430-320zM294-326c0 117 90 185 207 185 122 0 239-75 278-162v-222H634c-227 0-340 66-340 199" id="R"/><g id="h"><use transform="matrix(0.010416666666666668,0,0,0.010416666666666668,0,0)" xlink:href="#P"/><use transform="matrix(0.010416666666666668,0,0,0.010416666666666668,13.281250000000002,0)" xlink:href="#Q"/><use transform="matrix(0.010416666666666668,0,0,0.010416666666666668,18.458333333333336,0)" xlink:href="#N"/><use transform="matrix(0.010416666666666668,0,0,0.010416666666666668,30.625000000000004,0)" xlink:href="#K"/><use transform="matrix(0.010416666666666668,0,0,0.010416666666666668,44.614583333333336,0)" xlink:href="#R"/><use transform="matrix(0.010416666666666668,0,0,0.010416666666666668,56.218750000000014,0)" xlink:href="#M"/><use transform="matrix(0.010416666666666668,0,0,0.010416666666666668,63.187500000000014,0)" xlink:href="#R"/></g><path d="M688-137c238 0 323-102 359-325h193c-32 297-228 482-552 482-361 0-569-299-569-680 0-197 8-360 73-497 88-186 257-317 513-319 316-2 509 195 535 488h-193c-31-212-118-330-342-330-272 0-397 224-393 523v141c-3 282 115 517 376 517" id="S"/><path d="M341 0H156v-1536h185V0" id="T"/><path d="M494-271l252-811h198L509 167C425 381 299 474 84 421V271c167 16 242-37 283-173l41-110L22-1082h202" id="U"/><g id="i"><use transform="matrix(0.010416666666666668,0,0,0.010416666666666668,0,0)" xlink:href="#S"/><use transform="matrix(0.010416666666666668,0,0,0.010416666666666668,13.885416666666668,0)" xlink:href="#R"/><use transform="matrix(0.010416666666666668,0,0,0.010416666666666668,25.489583333333336,0)" xlink:href="#M"/><use transform="matrix(0.010416666666666668,0,0,0.010416666666666668,32.458333333333336,0)" xlink:href="#R"/><use transform="matrix(0.010416666666666668,0,0,0.010416666666666668,44.06249999999999,0)" xlink:href="#T"/><use transform="matrix(0.010416666666666668,0,0,0.010416666666666668,49.239583333333336,0)" xlink:href="#U"/><use transform="matrix(0.010416666666666668,0,0,0.010416666666666668,59.33333333333334,0)" xlink:href="#H"/><use transform="matrix(0.010416666666666668,0,0,0.010416666666666668,70.33333333333334,0)" xlink:href="#M"/></g><g id="j"><use transform="matrix(0.010416666666666668,0,0,0.010416666666666668,0,0)" xlink:href="#x"/><use transform="matrix(0.010416666666666668,0,0,0.010416666666666668,15.208333333333336,0)" xlink:href="#B"/><use transform="matrix(0.010416666666666668,0,0,0.010416666666666668,21.01041666666667,0)" xlink:href="#y"/></g><path d="M1240-945c-141 0-250 95-250 227V0H804v-709c0-157-77-236-231-236-121 0-204 52-249 155V0H139v-1082h175l5 120c79-93 186-140 321-140 151 0 254 58 309 174 69-98 181-174 345-174 237 0 362 126 362 377V0h-185v-714c-2-159-67-231-231-231" id="V"/><g id="k"><use transform="matrix(0.010416666666666668,0,0,0.010416666666666668,0,0)" xlink:href="#S"/><use transform="matrix(0.010416666666666668,0,0,0.010416666666666668,13.885416666666668,0)" xlink:href="#N"/><use transform="matrix(0.010416666666666668,0,0,0.010416666666666668,26.052083333333336,0)" xlink:href="#V"/><use transform="matrix(0.010416666666666668,0,0,0.010416666666666668,44.74999999999999,0)" xlink:href="#V"/><use transform="matrix(0.010416666666666668,0,0,0.010416666666666668,63.44791666666667,0)" xlink:href="#N"/><use transform="matrix(0.010416666666666668,0,0,0.010416666666666668,75.61458333333334,0)" xlink:href="#D"/></g><path d="M972-643H361V0H169v-1456h902v158H361v498h611v157" id="W"/><path d="M491 20c-241-1-355-148-355-398v-704h185v699c0 164 67 246 200 246 141 0 235-53 282-158v-787h185V0H812l-4-107C736-22 630 20 491 20" id="X"/><path d="M520 20C244 20 95-247 95-550c0-298 151-550 427-552 127 0 227 43 301 130v-564h185V0H838l-9-116C755-25 652 20 520 20zm48-965c-210 0-288 177-288 416 0 218 87 392 286 392 117 0 203-53 257-158v-497c-55-102-140-153-255-153" id="Y"/><path d="M253-1536c2 169-14 319-21 479H103l1-479h149" id="Z"/><g id="l"><use transform="matrix(0.010416666666666668,0,0,0.010416666666666668,0,0)" xlink:href="#W"/><use transform="matrix(0.010416666666666668,0,0,0.010416666666666668,11.562500000000002,0)" xlink:href="#X"/><use transform="matrix(0.010416666666666668,0,0,0.010416666666666668,23.322916666666668,0)" xlink:href="#D"/><use transform="matrix(0.010416666666666668,0,0,0.010416666666666668,35.09375000000001,0)" xlink:href="#Y"/><use transform="matrix(0.010416666666666668,0,0,0.010416666666666668,47.12500000000001,0)" xlink:href="#Z"/><use transform="matrix(0.010416666666666668,0,0,0.010416666666666668,50.01041666666667,0)" xlink:href="#H"/></g><path d="M634-1102c292 0 422 254 422 573 0 298-143 547-420 549-137 0-242-48-317-145L310 0H140v-1536h185v573c75-93 178-139 309-139zm-44 965c207 0 281-175 281-413 0-224-79-395-283-395-122 0-210 57-263 170v468c57 113 145 170 265 170" id="aa"/><g id="m"><use transform="matrix(0.010416666666666668,0,0,0.010416666666666668,0,0)" xlink:href="#z"/><use transform="matrix(0.010416666666666668,0,0,0.010416666666666668,14.531250000000002,0)" xlink:href="#R"/><use transform="matrix(0.010416666666666668,0,0,0.010416666666666668,26.135416666666668,0)" xlink:href="#aa"/><use transform="matrix(0.010416666666666668,0,0,0.010416666666666668,38.10416666666667,0)" xlink:href="#J"/><use transform="matrix(0.010416666666666668,0,0,0.010416666666666668,45.32291666666667,0)" xlink:href="#Q"/><use transform="matrix(0.010416666666666668,0,0,0.010416666666666668,50.50000000000001,0)" xlink:href="#I"/><use transform="matrix(0.010416666666666668,0,0,0.010416666666666668,61.80208333333334,0)" xlink:href="#T"/><use transform="matrix(0.010416666666666668,0,0,0.010416666666666668,66.97916666666667,0)" xlink:href="#T"/><use transform="matrix(0.010416666666666668,0,0,0.010416666666666668,72.15625,0)" xlink:href="#R"/></g><path d="M417-1456L893-268l476-1188h249V0h-192c-4-403 4-794 18-1179L966 0H819L342-1176c15 384 23 773 19 1176H169v-1456h248" id="ab"/><g id="n"><use transform="matrix(0.010416666666666668,0,0,0.010416666666666668,0,0)" xlink:href="#ab"/><use transform="matrix(0.010416666666666668,0,0,0.010416666666666668,18.625000000000004,0)" xlink:href="#Q"/><use transform="matrix(0.010416666666666668,0,0,0.010416666666666668,23.802083333333336,0)" xlink:href="#T"/><use transform="matrix(0.010416666666666668,0,0,0.010416666666666668,28.97916666666667,0)" xlink:href="#T"/><use transform="matrix(0.010416666666666668,0,0,0.010416666666666668,34.15625000000001,0)" xlink:href="#I"/><use transform="matrix(0.010416666666666668,0,0,0.010416666666666668,45.458333333333336,0)" xlink:href="#J"/></g><path d="M539-677L361-492V0H169v-1456h192v720l647-720h232L667-813 1285 0h-230" id="ac"/><g id="o"><use transform="matrix(0.010416666666666668,0,0,0.010416666666666668,0,0)" xlink:href="#ac"/><use transform="matrix(0.010416666666666668,0,0,0.010416666666666668,13.375000000000002,0)" xlink:href="#Q"/><use transform="matrix(0.010416666666666668,0,0,0.010416666666666668,18.552083333333336,0)" xlink:href="#Y"/><use transform="matrix(0.010416666666666668,0,0,0.010416666666666668,30.583333333333336,0)" xlink:href="#H"/></g><g id="p"><use transform="matrix(0.010416666666666668,0,0,0.010416666666666668,0,0)" xlink:href="#W"/><use transform="matrix(0.010416666666666668,0,0,0.010416666666666668,11.791666666666668,0)" xlink:href="#Q"/><use transform="matrix(0.010416666666666668,0,0,0.010416666666666668,16.96875,0)" xlink:href="#J"/><use transform="matrix(0.010416666666666668,0,0,0.010416666666666668,24.187499999999996,0)" xlink:href="#H"/><use transform="matrix(0.010416666666666668,0,0,0.010416666666666668,35.1875,0)" xlink:href="#M"/></g><path d="M1216-1011c-1 297-202 441-512 441H361V0H169v-1456h537c297-6 510 164 510 445zm-192 2c1-178-126-288-307-289H361v571h345c196 1 318-92 318-282" id="ad"/><path d="M277-555c0 244 77 420 297 424 127 2 249-93 255-210h175C980-127 805 20 574 20 258 20 81-222 92-562c11-319 164-533 481-540 237-5 426 165 431 392H829c-7-133-115-242-256-240-209 4-296 166-296 395" id="ae"/><g id="q"><use transform="matrix(0.010416666666666668,0,0,0.010416666666666668,0,0)" xlink:href="#ad"/><use transform="matrix(0.010416666666666668,0,0,0.010416666666666668,13.32291666666667,0)" xlink:href="#I"/><use transform="matrix(0.010416666666666668,0,0,0.010416666666666668,24.625000000000004,0)" xlink:href="#Y"/><use transform="matrix(0.010416666666666668,0,0,0.010416666666666668,36.65625000000001,0)" xlink:href="#Q"/><use transform="matrix(0.010416666666666668,0,0,0.010416666666666668,41.83333333333334,0)" xlink:href="#R"/><use transform="matrix(0.010416666666666668,0,0,0.010416666666666668,53.437500000000014,0)" xlink:href="#M"/><use transform="matrix(0.010416666666666668,0,0,0.010416666666666668,60.406250000000014,0)" xlink:href="#J"/><use transform="matrix(0.010416666666666668,0,0,0.010416666666666668,67.62500000000001,0)" xlink:href="#Q"/><use transform="matrix(0.010416666666666668,0,0,0.010416666666666668,72.80208333333334,0)" xlink:href="#ae"/></g><path d="M589-945c-131 0-219 81-264 174V0H140v-1536h185v585c82-101 189-151 320-151 229 0 346 129 346 387V0H806v-716c-2-153-65-229-217-229" id="af"/><g id="r"><use transform="matrix(0.010416666666666668,0,0,0.010416666666666668,0,0)" xlink:href="#A"/><use transform="matrix(0.010416666666666668,0,0,0.010416666666666668,13.135416666666668,0)" xlink:href="#I"/><use transform="matrix(0.010416666666666668,0,0,0.010416666666666668,24.437499999999996,0)" xlink:href="#H"/><use transform="matrix(0.010416666666666668,0,0,0.010416666666666668,35.4375,0)" xlink:href="#I"/><use transform="matrix(0.010416666666666668,0,0,0.010416666666666668,46.739583333333336,0)" xlink:href="#R"/><use transform="matrix(0.010416666666666668,0,0,0.010416666666666668,58.34375,0)" xlink:href="#J"/><use transform="matrix(0.010416666666666668,0,0,0.010416666666666668,65.36458333333334,0)" xlink:href="#ae"/><use transform="matrix(0.010416666666666668,0,0,0.010416666666666668,76.53125000000001,0)" xlink:href="#af"/></g><path d="M521 20C240 20 96-239 96-550c0-303 147-552 427-552 132 0 235 47 309 140l9-120h169V-26c4 277-183 454-459 452-165-1-334-81-400-187l96-111c79 98 176 147 291 147 180 1 288-109 286-290v-93C750-23 649 20 521 20zm48-965c-209 0-287 178-287 416 0 217 86 392 285 392 117 0 202-53 257-159v-494c-57-103-142-155-255-155" id="ag"/><g id="s"><use transform="matrix(0.010416666666666668,0,0,0.010416666666666668,0,0)" xlink:href="#ad"/><use transform="matrix(0.010416666666666668,0,0,0.010416666666666668,13.458333333333336,0)" xlink:href="#J"/><use transform="matrix(0.010416666666666668,0,0,0.010416666666666668,20.468750000000004,0)" xlink:href="#N"/><use transform="matrix(0.010416666666666668,0,0,0.010416666666666668,32.63541666666667,0)" xlink:href="#ag"/><use transform="matrix(0.010416666666666668,0,0,0.010416666666666668,44.60416666666667,0)" xlink:href="#J"/><use transform="matrix(0.010416666666666668,0,0,0.010416666666666668,51.40625000000001,0)" xlink:href="#R"/><use transform="matrix(0.010416666666666668,0,0,0.010416666666666668,63.01041666666667,0)" xlink:href="#V"/></g><g id="t"><use transform="matrix(0.010416666666666668,0,0,0.010416666666666668,0,0)" xlink:href="#x"/><use transform="matrix(0.010416666666666668,0,0,0.010416666666666668,15.208333333333336,0)" xlink:href="#S"/><use transform="matrix(0.010416666666666668,0,0,0.010416666666666668,29.093750000000004,0)" xlink:href="#B"/></g><g id="u"><use transform="matrix(0.010416666666666668,0,0,0.010416666666666668,0,0)" xlink:href="#S"/><use transform="matrix(0.010416666666666668,0,0,0.010416666666666668,13.885416666666668,0)" xlink:href="#R"/><use transform="matrix(0.010416666666666668,0,0,0.010416666666666668,25.489583333333336,0)" xlink:href="#D"/><use transform="matrix(0.010416666666666668,0,0,0.010416666666666668,37.26041666666667,0)" xlink:href="#ae"/><use transform="matrix(0.010416666666666668,0,0,0.010416666666666668,48.427083333333336,0)" xlink:href="#I"/><use transform="matrix(0.010416666666666668,0,0,0.010416666666666668,59.729166666666686,0)" xlink:href="#J"/></g><g id="v"><use transform="matrix(0.010416666666666668,0,0,0.010416666666666668,0,0)" xlink:href="#K"/><use transform="matrix(0.010416666666666668,0,0,0.010416666666666668,13.989583333333336,0)" xlink:href="#R"/><use transform="matrix(0.010416666666666668,0,0,0.010416666666666668,25.593750000000004,0)" xlink:href="#M"/><use transform="matrix(0.010416666666666668,0,0,0.010416666666666668,32.56250000000001,0)" xlink:href="#R"/></g><g id="w"><use transform="matrix(0.010416666666666668,0,0,0.010416666666666668,0,0)" xlink:href="#S"/><use transform="matrix(0.010416666666666668,0,0,0.010416666666666668,13.885416666666668,0)" xlink:href="#N"/><use transform="matrix(0.010416666666666668,0,0,0.010416666666666668,26.052083333333336,0)" xlink:href="#V"/><use transform="matrix(0.010416666666666668,0,0,0.010416666666666668,44.74999999999999,0)" xlink:href="#V"/><use transform="matrix(0.010416666666666668,0,0,0.010416666666666668,63.44791666666667,0)" xlink:href="#N"/><use transform="matrix(0.010416666666666668,0,0,0.010416666666666668,75.61458333333334,0)" xlink:href="#D"/><use transform="matrix(0.010416666666666668,0,0,0.010416666666666668,87.38541666666667,0)" xlink:href="#H"/></g></defs></g></svg>